<svg xmlns="http://www.w3.org/2000/svg" xmlns:xlink="http://www.w3.org/1999/xlink" width="1650" zoomAndPan="magnify" viewBox="0 0 1237.5 138.749998" height="185" preserveAspectRatio="xMidYMid meet" version="1.0"><defs><g/><clipPath id="7188d41a68"><path d="M 0.863281 0 L 1236.136719 0 L 1236.136719 138.5 L 0.863281 138.5 Z M 0.863281 0 " clip-rule="nonzero"/></clipPath><clipPath id="bea5ec48ec"><path d="M 321.148438 13.851562 L 520.136719 13.851562 L 520.136719 119.148438 L 321.148438 119.148438 Z M 321.148438 13.851562 " clip-rule="nonzero"/></clipPath><clipPath id="f576fb9991"><path d="M 0.148438 0.851562 L 199.136719 0.851562 L 199.136719 106.148438 L 0.148438 106.148438 Z M 0.148438 0.851562 " clip-rule="nonzero"/></clipPath><clipPath id="c318060c1c"><rect x="0" width="200" y="0" height="107"/></clipPath><clipPath id="caa3c53cd7"><path d="M 321.148438 13.851562 L 520.125 13.851562 L 520.125 119.140625 L 321.148438 119.140625 Z M 321.148438 13.851562 " clip-rule="nonzero"/></clipPath><clipPath id="eb5aaf7c20"><path d="M 754.492188 13.851562 L 953.480469 13.851562 L 953.480469 119.148438 L 754.492188 119.148438 Z M 754.492188 13.851562 " clip-rule="nonzero"/></clipPath><clipPath id="4acf703502"><path d="M 0.492188 0.851562 L 199.480469 0.851562 L 199.480469 106.148438 L 0.492188 106.148438 Z M 0.492188 0.851562 " clip-rule="nonzero"/></clipPath><clipPath id="3476335cde"><rect x="0" width="200" y="0" height="107"/></clipPath><clipPath id="0c27b54757"><path d="M 754.496094 13.851562 L 953.46875 13.851562 L 953.46875 119.140625 L 754.496094 119.140625 Z M 754.496094 13.851562 " clip-rule="nonzero"/></clipPath><clipPath id="89500762a3"><path d="M 42.28125 19.289062 L 241.273438 19.289062 L 241.273438 116.429688 L 42.28125 116.429688 Z M 42.28125 19.289062 " clip-rule="nonzero"/></clipPath><clipPath id="bc18169adc"><path d="M 0.28125 0.289062 L 199.273438 0.289062 L 199.273438 97.429688 L 0.28125 97.429688 Z M 0.28125 0.289062 " clip-rule="nonzero"/></clipPath><clipPath id="d6077346ab"><rect x="0" width="200" y="0" height="98"/></clipPath><clipPath id="339264a8e9"><path d="M 42.285156 19.289062 L 241.265625 19.289062 L 241.265625 116.425781 L 42.285156 116.425781 Z M 42.285156 19.289062 " clip-rule="nonzero"/></clipPath><clipPath id="c9a60539e1"><rect x="0" width="137" y="0" height="73"/></clipPath></defs><g clip-path="url(#7188d41a68)"><path fill="#ffffff" d="M 0.863281 0 L 1236.136719 0 L 1236.136719 138.5 L 0.863281 138.5 Z M 0.863281 0 " fill-opacity="1" fill-rule="nonzero"/><path stroke-linecap="butt" transform="matrix(0.748651, 0, 0, 0.748651, 0.86332, 0.0000019964)" fill-opacity="1" fill="#ffffff" fill-rule="nonzero" stroke-linejoin="miter" d="M -0.0000524084 -0.00000266667 L 1649.99892 -0.00000266667 L 1649.99892 184.999408 L -0.0000524084 184.999408 Z M -0.0000524084 -0.00000266667 " stroke="#151b23" stroke-width="8" stroke-opacity="1" stroke-miterlimit="4"/></g><g clip-path="url(#bea5ec48ec)"><g transform="matrix(1, 0, 0, 1, 321, 13)"><g clip-path="url(#c318060c1c)"><g clip-path="url(#f576fb9991)"><path fill="#ff5757" d="M 0.148438 0.851562 L 199.226562 0.851562 L 199.226562 106.148438 L 0.148438 106.148438 Z M 0.148438 0.851562 " fill-opacity="1" fill-rule="nonzero"/></g></g></g></g><g clip-path="url(#caa3c53cd7)"><path stroke-linecap="butt" transform="matrix(0.748651, 0, 0, 0.748651, 321.147785, 13.850046)" fill="none" stroke-linejoin="miter" d="M 0.000871555 0.00202546 L 265.780993 0.00202546 L 265.780993 140.640397 L 0.000871555 140.640397 Z M 0.000871555 0.00202546 " stroke="#ffabab" stroke-width="18" stroke-opacity="1" stroke-miterlimit="4"/></g><g fill="#f4f6fa" fill-opacity="1"><g transform="translate(339.279177, 55.774504)"><g><path d="M 6.984375 -17.78125 L 0.109375 -17.78125 L 0.109375 -19.5625 L 15.9375 -19.5625 L 15.9375 -17.78125 L 9.0625 -17.78125 L 9.0625 0 L 6.984375 0 Z M 6.984375 -17.78125 "/></g></g></g><g fill="#f4f6fa" fill-opacity="1"><g transform="translate(354.928824, 55.774504)"><g><path d="M 4.671875 -11.828125 C 5.128906 -12.816406 5.820312 -13.5625 6.75 -14.0625 C 7.675781 -14.5625 8.816406 -14.8125 10.171875 -14.8125 L 10.171875 -12.890625 L 9.703125 -12.921875 C 8.148438 -12.921875 6.9375 -12.441406 6.0625 -11.484375 C 5.1875 -10.535156 4.75 -9.203125 4.75 -7.484375 L 4.75 0 L 2.765625 0 L 2.765625 -14.703125 L 4.671875 -14.703125 Z M 4.671875 -11.828125 "/></g></g></g><g fill="#f4f6fa" fill-opacity="1"><g transform="translate(365.883579, 55.774504)"><g><path d="M 7.90625 -14.8125 C 9.832031 -14.8125 11.304688 -14.332031 12.328125 -13.375 C 13.347656 -12.414062 13.859375 -10.992188 13.859375 -9.109375 L 13.859375 0 L 11.96875 0 L 11.96875 -2.296875 C 11.519531 -1.523438 10.859375 -0.925781 9.984375 -0.5 C 9.117188 -0.0703125 8.09375 0.140625 6.90625 0.140625 C 5.257812 0.140625 3.953125 -0.25 2.984375 -1.03125 C 2.015625 -1.8125 1.53125 -2.847656 1.53125 -4.140625 C 1.53125 -5.390625 1.984375 -6.394531 2.890625 -7.15625 C 3.796875 -7.914062 5.238281 -8.296875 7.21875 -8.296875 L 11.875 -8.296875 L 11.875 -9.203125 C 11.875 -10.460938 11.519531 -11.421875 10.8125 -12.078125 C 10.101562 -12.742188 9.070312 -13.078125 7.71875 -13.078125 C 6.78125 -13.078125 5.882812 -12.921875 5.03125 -12.609375 C 4.175781 -12.304688 3.441406 -11.882812 2.828125 -11.34375 L 1.921875 -12.828125 C 2.671875 -13.460938 3.566406 -13.953125 4.609375 -14.296875 C 5.648438 -14.640625 6.75 -14.8125 7.90625 -14.8125 Z M 7.21875 -1.421875 C 8.332031 -1.421875 9.289062 -1.675781 10.09375 -2.1875 C 10.894531 -2.707031 11.488281 -3.453125 11.875 -4.421875 L 11.875 -6.828125 L 7.265625 -6.828125 C 4.753906 -6.828125 3.5 -5.945312 3.5 -4.1875 C 3.5 -3.332031 3.820312 -2.65625 4.46875 -2.15625 C 5.125 -1.664062 6.039062 -1.421875 7.21875 -1.421875 Z M 7.21875 -1.421875 "/></g></g></g><g fill="#f4f6fa" fill-opacity="1"><g transform="translate(382.37162, 55.774504)"><g><path d="M 10.265625 -14.8125 C 12.109375 -14.8125 13.570312 -14.273438 14.65625 -13.203125 C 15.75 -12.128906 16.296875 -10.570312 16.296875 -8.53125 L 16.296875 0 L 14.3125 0 L 14.3125 -8.328125 C 14.3125 -9.859375 13.925781 -11.023438 13.15625 -11.828125 C 12.394531 -12.628906 11.304688 -13.03125 9.890625 -13.03125 C 8.304688 -13.03125 7.050781 -12.554688 6.125 -11.609375 C 5.207031 -10.671875 4.75 -9.375 4.75 -7.71875 L 4.75 0 L 2.765625 0 L 2.765625 -14.703125 L 4.671875 -14.703125 L 4.671875 -11.984375 C 5.210938 -12.878906 5.960938 -13.570312 6.921875 -14.0625 C 7.878906 -14.5625 8.992188 -14.8125 10.265625 -14.8125 Z M 10.265625 -14.8125 "/></g></g></g><g fill="#f4f6fa" fill-opacity="1"><g transform="translate(401.290949, 55.774504)"><g><path d="M 6.703125 0.140625 C 5.515625 0.140625 4.375 -0.03125 3.28125 -0.375 C 2.195312 -0.71875 1.347656 -1.148438 0.734375 -1.671875 L 1.625 -3.25 C 2.238281 -2.757812 3.007812 -2.359375 3.9375 -2.046875 C 4.875 -1.742188 5.84375 -1.59375 6.84375 -1.59375 C 8.1875 -1.59375 9.179688 -1.800781 9.828125 -2.21875 C 10.472656 -2.632812 10.796875 -3.226562 10.796875 -4 C 10.796875 -4.539062 10.617188 -4.960938 10.265625 -5.265625 C 9.910156 -5.578125 9.460938 -5.8125 8.921875 -5.96875 C 8.378906 -6.125 7.660156 -6.273438 6.765625 -6.421875 C 5.566406 -6.648438 4.601562 -6.878906 3.875 -7.109375 C 3.15625 -7.347656 2.539062 -7.742188 2.03125 -8.296875 C 1.519531 -8.859375 1.265625 -9.632812 1.265625 -10.625 C 1.265625 -11.851562 1.773438 -12.859375 2.796875 -13.640625 C 3.816406 -14.421875 5.242188 -14.8125 7.078125 -14.8125 C 8.023438 -14.8125 8.972656 -14.6875 9.921875 -14.4375 C 10.867188 -14.1875 11.648438 -13.859375 12.265625 -13.453125 L 11.40625 -11.859375 C 10.195312 -12.691406 8.753906 -13.109375 7.078125 -13.109375 C 5.804688 -13.109375 4.847656 -12.882812 4.203125 -12.4375 C 3.566406 -11.988281 3.25 -11.398438 3.25 -10.671875 C 3.25 -10.117188 3.425781 -9.671875 3.78125 -9.328125 C 4.144531 -8.992188 4.597656 -8.75 5.140625 -8.59375 C 5.679688 -8.4375 6.425781 -8.273438 7.375 -8.109375 C 8.550781 -7.878906 9.492188 -7.648438 10.203125 -7.421875 C 10.910156 -7.203125 11.515625 -6.820312 12.015625 -6.28125 C 12.523438 -5.75 12.78125 -5.003906 12.78125 -4.046875 C 12.78125 -2.765625 12.242188 -1.742188 11.171875 -0.984375 C 10.097656 -0.234375 8.609375 0.140625 6.703125 0.140625 Z M 6.703125 0.140625 "/></g></g></g><g fill="#f4f6fa" fill-opacity="1"><g transform="translate(414.956458, 55.774504)"><g><path d="M 21.109375 -14.8125 C 22.953125 -14.8125 24.398438 -14.28125 25.453125 -13.21875 C 26.503906 -12.15625 27.03125 -10.59375 27.03125 -8.53125 L 27.03125 0 L 25.046875 0 L 25.046875 -8.328125 C 25.046875 -9.859375 24.675781 -11.023438 23.9375 -11.828125 C 23.207031 -12.628906 22.171875 -13.03125 20.828125 -13.03125 C 19.296875 -13.03125 18.09375 -12.554688 17.21875 -11.609375 C 16.34375 -10.671875 15.90625 -9.375 15.90625 -7.71875 L 15.90625 0 L 13.921875 0 L 13.921875 -8.328125 C 13.921875 -9.859375 13.550781 -11.023438 12.8125 -11.828125 C 12.082031 -12.628906 11.035156 -13.03125 9.671875 -13.03125 C 8.160156 -13.03125 6.960938 -12.554688 6.078125 -11.609375 C 5.191406 -10.671875 4.75 -9.375 4.75 -7.71875 L 4.75 0 L 2.765625 0 L 2.765625 -14.703125 L 4.671875 -14.703125 L 4.671875 -12.015625 C 5.191406 -12.910156 5.914062 -13.597656 6.84375 -14.078125 C 7.78125 -14.566406 8.851562 -14.8125 10.0625 -14.8125 C 11.289062 -14.8125 12.359375 -14.550781 13.265625 -14.03125 C 14.171875 -13.507812 14.847656 -12.738281 15.296875 -11.71875 C 15.828125 -12.6875 16.597656 -13.441406 17.609375 -13.984375 C 18.628906 -14.535156 19.796875 -14.8125 21.109375 -14.8125 Z M 21.109375 -14.8125 "/></g></g></g><g fill="#f4f6fa" fill-opacity="1"><g transform="translate(444.606984, 55.774504)"><g><path d="M 2.765625 -14.703125 L 4.75 -14.703125 L 4.75 0 L 2.765625 0 Z M 3.765625 -17.921875 C 3.359375 -17.921875 3.015625 -18.054688 2.734375 -18.328125 C 2.453125 -18.609375 2.3125 -18.945312 2.3125 -19.34375 C 2.3125 -19.71875 2.453125 -20.039062 2.734375 -20.3125 C 3.015625 -20.59375 3.359375 -20.734375 3.765625 -20.734375 C 4.179688 -20.734375 4.523438 -20.597656 4.796875 -20.328125 C 5.078125 -20.066406 5.21875 -19.75 5.21875 -19.375 C 5.21875 -18.957031 5.078125 -18.609375 4.796875 -18.328125 C 4.523438 -18.054688 4.179688 -17.921875 3.765625 -17.921875 Z M 3.765625 -17.921875 "/></g></g></g><g fill="#f4f6fa" fill-opacity="1"><g transform="translate(452.124406, 55.774504)"><g><path d="M 10.515625 -0.890625 C 10.140625 -0.554688 9.675781 -0.300781 9.125 -0.125 C 8.570312 0.0507812 8 0.140625 7.40625 0.140625 C 6.03125 0.140625 4.96875 -0.226562 4.21875 -0.96875 C 3.476562 -1.71875 3.109375 -2.773438 3.109375 -4.140625 L 3.109375 -13.03125 L 0.46875 -13.03125 L 0.46875 -14.703125 L 3.109375 -14.703125 L 3.109375 -17.921875 L 5.09375 -17.921875 L 5.09375 -14.703125 L 9.5625 -14.703125 L 9.5625 -13.03125 L 5.09375 -13.03125 L 5.09375 -4.25 C 5.09375 -3.375 5.3125 -2.707031 5.75 -2.25 C 6.1875 -1.789062 6.8125 -1.5625 7.625 -1.5625 C 8.039062 -1.5625 8.4375 -1.625 8.8125 -1.75 C 9.195312 -1.882812 9.53125 -2.070312 9.8125 -2.3125 Z M 10.515625 -0.890625 "/></g></g></g><g fill="#f4f6fa" fill-opacity="1"><g transform="translate(463.079162, 55.774504)"><g><path d="M 10.515625 -0.890625 C 10.140625 -0.554688 9.675781 -0.300781 9.125 -0.125 C 8.570312 0.0507812 8 0.140625 7.40625 0.140625 C 6.03125 0.140625 4.96875 -0.226562 4.21875 -0.96875 C 3.476562 -1.71875 3.109375 -2.773438 3.109375 -4.140625 L 3.109375 -13.03125 L 0.46875 -13.03125 L 0.46875 -14.703125 L 3.109375 -14.703125 L 3.109375 -17.921875 L 5.09375 -17.921875 L 5.09375 -14.703125 L 9.5625 -14.703125 L 9.5625 -13.03125 L 5.09375 -13.03125 L 5.09375 -4.25 C 5.09375 -3.375 5.3125 -2.707031 5.75 -2.25 C 6.1875 -1.789062 6.8125 -1.5625 7.625 -1.5625 C 8.039062 -1.5625 8.4375 -1.625 8.8125 -1.75 C 9.195312 -1.882812 9.53125 -2.070312 9.8125 -2.3125 Z M 10.515625 -0.890625 "/></g></g></g><g fill="#f4f6fa" fill-opacity="1"><g transform="translate(473.894175, 55.774504)"><g><path d="M 15.5625 -6.734375 L 3.265625 -6.734375 C 3.378906 -5.203125 3.96875 -3.96875 5.03125 -3.03125 C 6.09375 -2.09375 7.4375 -1.625 9.0625 -1.625 C 9.96875 -1.625 10.800781 -1.785156 11.5625 -2.109375 C 12.332031 -2.429688 13 -2.910156 13.5625 -3.546875 L 14.671875 -2.265625 C 14.023438 -1.484375 13.210938 -0.882812 12.234375 -0.46875 C 11.253906 -0.0625 10.175781 0.140625 9 0.140625 C 7.488281 0.140625 6.148438 -0.175781 4.984375 -0.8125 C 3.828125 -1.457031 2.921875 -2.347656 2.265625 -3.484375 C 1.609375 -4.628906 1.28125 -5.921875 1.28125 -7.359375 C 1.28125 -8.785156 1.59375 -10.066406 2.21875 -11.203125 C 2.84375 -12.347656 3.695312 -13.234375 4.78125 -13.859375 C 5.875 -14.492188 7.101562 -14.8125 8.46875 -14.8125 C 9.832031 -14.8125 11.050781 -14.492188 12.125 -13.859375 C 13.207031 -13.234375 14.054688 -12.351562 14.671875 -11.21875 C 15.285156 -10.09375 15.59375 -8.804688 15.59375 -7.359375 Z M 8.46875 -13.109375 C 7.050781 -13.109375 5.863281 -12.65625 4.90625 -11.75 C 3.945312 -10.851562 3.398438 -9.675781 3.265625 -8.21875 L 13.703125 -8.21875 C 13.566406 -9.675781 13.019531 -10.851562 12.0625 -11.75 C 11.101562 -12.65625 9.90625 -13.109375 8.46875 -13.109375 Z M 8.46875 -13.109375 "/></g></g></g><g fill="#f4f6fa" fill-opacity="1"><g transform="translate(490.773459, 55.774504)"><g><path d="M 4.671875 -11.828125 C 5.128906 -12.816406 5.820312 -13.5625 6.75 -14.0625 C 7.675781 -14.5625 8.816406 -14.8125 10.171875 -14.8125 L 10.171875 -12.890625 L 9.703125 -12.921875 C 8.148438 -12.921875 6.9375 -12.441406 6.0625 -11.484375 C 5.1875 -10.535156 4.75 -9.203125 4.75 -7.484375 L 4.75 0 L 2.765625 0 L 2.765625 -14.703125 L 4.671875 -14.703125 Z M 4.671875 -11.828125 "/></g></g></g><g fill="#f4f6fa" fill-opacity="1"><g transform="translate(394.878214, 94.704358)"><g><path d="M 6.15625 5.421875 C 5.101562 3.703125 4.296875 1.734375 3.734375 -0.484375 C 3.179688 -2.710938 2.90625 -5.101562 2.90625 -7.65625 C 2.90625 -10.207031 3.179688 -12.601562 3.734375 -14.84375 C 4.296875 -17.09375 5.101562 -19.054688 6.15625 -20.734375 L 8.046875 -20.734375 C 6.953125 -18.859375 6.144531 -16.835938 5.625 -14.671875 C 5.113281 -12.515625 4.859375 -10.175781 4.859375 -7.65625 C 4.859375 -5.144531 5.113281 -2.804688 5.625 -0.640625 C 6.144531 1.515625 6.953125 3.535156 8.046875 5.421875 Z M 6.15625 5.421875 "/></g></g></g><g fill="#f4f6fa" fill-opacity="1"><g transform="translate(403.653182, 94.704358)"><g><path d="M 6.984375 -17.78125 L 0.109375 -17.78125 L 0.109375 -19.5625 L 15.9375 -19.5625 L 15.9375 -17.78125 L 9.0625 -17.78125 L 9.0625 0 L 6.984375 0 Z M 6.984375 -17.78125 "/></g></g></g><g fill="#f4f6fa" fill-opacity="1"><g transform="translate(418.855667, 94.704358)"><g><path d="M 15.453125 0 L 9.140625 -8.609375 L 2.84375 0 L 0.46875 0 L 7.90625 -10.0625 L 0.953125 -19.5625 L 3.328125 -19.5625 L 9.21875 -11.578125 L 15.09375 -19.5625 L 17.328125 -19.5625 L 10.40625 -10.125 L 17.859375 0 Z M 15.453125 0 "/></g></g></g><g fill="#f4f6fa" fill-opacity="1"><g transform="translate(437.188135, 94.704358)"><g><path d="M 1.125 5.421875 C 2.21875 3.535156 3.023438 1.519531 3.546875 -0.625 C 4.066406 -2.78125 4.328125 -5.125 4.328125 -7.65625 C 4.328125 -10.1875 4.066406 -12.53125 3.546875 -14.6875 C 3.023438 -16.84375 2.21875 -18.859375 1.125 -20.734375 L 3.015625 -20.734375 C 4.054688 -19.054688 4.863281 -17.09375 5.4375 -14.84375 C 6.007812 -12.601562 6.296875 -10.207031 6.296875 -7.65625 C 6.296875 -5.101562 6.015625 -2.707031 5.453125 -0.46875 C 4.890625 1.757812 4.078125 3.722656 3.015625 5.421875 Z M 1.125 5.421875 "/></g></g></g><path stroke-linecap="butt" transform="matrix(0.748651, 0, 0, 0.748651, 520.134865, 59.012157)" fill="none" stroke-linejoin="miter" d="M 0.00247608 10.001779 L 313.039469 10.001779 " stroke="#20365a" stroke-width="20" stroke-opacity="1" stroke-miterlimit="4"/><g clip-path="url(#eb5aaf7c20)"><g transform="matrix(1, 0, 0, 1, 754, 13)"><g clip-path="url(#3476335cde)"><g clip-path="url(#4acf703502)"><path fill="#93cddd" d="M 0.492188 0.851562 L 199.570312 0.851562 L 199.570312 106.148438 L 0.492188 106.148438 Z M 0.492188 0.851562 " fill-opacity="1" fill-rule="nonzero"/></g></g></g></g><g clip-path="url(#0c27b54757)"><path stroke-linecap="butt" transform="matrix(0.748651, 0, 0, 0.748651, 754.493064, 13.850046)" fill="none" stroke-linejoin="miter" d="M 0.00404695 0.00202546 L 265.77895 0.00202546 L 265.77895 140.640397 L 0.00404695 140.640397 Z M 0.00404695 0.00202546 " stroke="#6280b0" stroke-width="18" stroke-opacity="1" stroke-miterlimit="4"/></g><g fill="#f4f6fa" fill-opacity="1"><g transform="translate(794.089685, 55.774504)"><g><path d="M 16.546875 0 L 12.078125 -6.296875 C 11.578125 -6.234375 11.054688 -6.203125 10.515625 -6.203125 L 5.25 -6.203125 L 5.25 0 L 3.1875 0 L 3.1875 -19.5625 L 10.515625 -19.5625 C 13.003906 -19.5625 14.957031 -18.960938 16.375 -17.765625 C 17.789062 -16.578125 18.5 -14.941406 18.5 -12.859375 C 18.5 -11.328125 18.113281 -10.035156 17.34375 -8.984375 C 16.570312 -7.929688 15.46875 -7.171875 14.03125 -6.703125 L 18.8125 0 Z M 10.453125 -7.96875 C 12.390625 -7.96875 13.867188 -8.394531 14.890625 -9.25 C 15.921875 -10.101562 16.4375 -11.304688 16.4375 -12.859375 C 16.4375 -14.441406 15.921875 -15.65625 14.890625 -16.5 C 13.867188 -17.351562 12.390625 -17.78125 10.453125 -17.78125 L 5.25 -17.78125 L 5.25 -7.96875 Z M 10.453125 -7.96875 "/></g></g></g><g fill="#f4f6fa" fill-opacity="1"><g transform="translate(814.294524, 55.774504)"><g><path d="M 15.5625 -6.734375 L 3.265625 -6.734375 C 3.378906 -5.203125 3.96875 -3.96875 5.03125 -3.03125 C 6.09375 -2.09375 7.4375 -1.625 9.0625 -1.625 C 9.96875 -1.625 10.800781 -1.785156 11.5625 -2.109375 C 12.332031 -2.429688 13 -2.910156 13.5625 -3.546875 L 14.671875 -2.265625 C 14.023438 -1.484375 13.210938 -0.882812 12.234375 -0.46875 C 11.253906 -0.0625 10.175781 0.140625 9 0.140625 C 7.488281 0.140625 6.148438 -0.175781 4.984375 -0.8125 C 3.828125 -1.457031 2.921875 -2.347656 2.265625 -3.484375 C 1.609375 -4.628906 1.28125 -5.921875 1.28125 -7.359375 C 1.28125 -8.785156 1.59375 -10.066406 2.21875 -11.203125 C 2.84375 -12.347656 3.695312 -13.234375 4.78125 -13.859375 C 5.875 -14.492188 7.101562 -14.8125 8.46875 -14.8125 C 9.832031 -14.8125 11.050781 -14.492188 12.125 -13.859375 C 13.207031 -13.234375 14.054688 -12.351562 14.671875 -11.21875 C 15.285156 -10.09375 15.59375 -8.804688 15.59375 -7.359375 Z M 8.46875 -13.109375 C 7.050781 -13.109375 5.863281 -12.65625 4.90625 -11.75 C 3.945312 -10.851562 3.398438 -9.675781 3.265625 -8.21875 L 13.703125 -8.21875 C 13.566406 -9.675781 13.019531 -10.851562 12.0625 -11.75 C 11.101562 -12.65625 9.90625 -13.109375 8.46875 -13.109375 Z M 8.46875 -13.109375 "/></g></g></g><g fill="#f4f6fa" fill-opacity="1"><g transform="translate(831.173809, 55.774504)"><g><path d="M 8.859375 0.140625 C 7.410156 0.140625 6.113281 -0.175781 4.96875 -0.8125 C 3.820312 -1.445312 2.921875 -2.335938 2.265625 -3.484375 C 1.609375 -4.628906 1.28125 -5.921875 1.28125 -7.359375 C 1.28125 -8.785156 1.609375 -10.066406 2.265625 -11.203125 C 2.921875 -12.347656 3.820312 -13.234375 4.96875 -13.859375 C 6.113281 -14.492188 7.410156 -14.8125 8.859375 -14.8125 C 10.128906 -14.8125 11.257812 -14.5625 12.25 -14.0625 C 13.25 -13.570312 14.039062 -12.851562 14.625 -11.90625 L 13.140625 -10.90625 C 12.648438 -11.625 12.03125 -12.164062 11.28125 -12.53125 C 10.539062 -12.894531 9.734375 -13.078125 8.859375 -13.078125 C 7.796875 -13.078125 6.835938 -12.835938 5.984375 -12.359375 C 5.140625 -11.890625 4.476562 -11.21875 4 -10.34375 C 3.53125 -9.46875 3.296875 -8.472656 3.296875 -7.359375 C 3.296875 -6.210938 3.53125 -5.207031 4 -4.34375 C 4.476562 -3.476562 5.140625 -2.804688 5.984375 -2.328125 C 6.835938 -1.859375 7.796875 -1.625 8.859375 -1.625 C 9.734375 -1.625 10.539062 -1.800781 11.28125 -2.15625 C 12.03125 -2.507812 12.648438 -3.050781 13.140625 -3.78125 L 14.625 -2.765625 C 14.039062 -1.816406 13.242188 -1.09375 12.234375 -0.59375 C 11.234375 -0.101562 10.109375 0.140625 8.859375 0.140625 Z M 8.859375 0.140625 "/></g></g></g><g fill="#f4f6fa" fill-opacity="1"><g transform="translate(846.655792, 55.774504)"><g><path d="M 15.5625 -6.734375 L 3.265625 -6.734375 C 3.378906 -5.203125 3.96875 -3.96875 5.03125 -3.03125 C 6.09375 -2.09375 7.4375 -1.625 9.0625 -1.625 C 9.96875 -1.625 10.800781 -1.785156 11.5625 -2.109375 C 12.332031 -2.429688 13 -2.910156 13.5625 -3.546875 L 14.671875 -2.265625 C 14.023438 -1.484375 13.210938 -0.882812 12.234375 -0.46875 C 11.253906 -0.0625 10.175781 0.140625 9 0.140625 C 7.488281 0.140625 6.148438 -0.175781 4.984375 -0.8125 C 3.828125 -1.457031 2.921875 -2.347656 2.265625 -3.484375 C 1.609375 -4.628906 1.28125 -5.921875 1.28125 -7.359375 C 1.28125 -8.785156 1.59375 -10.066406 2.21875 -11.203125 C 2.84375 -12.347656 3.695312 -13.234375 4.78125 -13.859375 C 5.875 -14.492188 7.101562 -14.8125 8.46875 -14.8125 C 9.832031 -14.8125 11.050781 -14.492188 12.125 -13.859375 C 13.207031 -13.234375 14.054688 -12.351562 14.671875 -11.21875 C 15.285156 -10.09375 15.59375 -8.804688 15.59375 -7.359375 Z M 8.46875 -13.109375 C 7.050781 -13.109375 5.863281 -12.65625 4.90625 -11.75 C 3.945312 -10.851562 3.398438 -9.675781 3.265625 -8.21875 L 13.703125 -8.21875 C 13.566406 -9.675781 13.019531 -10.851562 12.0625 -11.75 C 11.101562 -12.65625 9.90625 -13.109375 8.46875 -13.109375 Z M 8.46875 -13.109375 "/></g></g></g><g fill="#f4f6fa" fill-opacity="1"><g transform="translate(863.535077, 55.774504)"><g><path d="M 2.765625 -14.703125 L 4.75 -14.703125 L 4.75 0 L 2.765625 0 Z M 3.765625 -17.921875 C 3.359375 -17.921875 3.015625 -18.054688 2.734375 -18.328125 C 2.453125 -18.609375 2.3125 -18.945312 2.3125 -19.34375 C 2.3125 -19.71875 2.453125 -20.039062 2.734375 -20.3125 C 3.015625 -20.59375 3.359375 -20.734375 3.765625 -20.734375 C 4.179688 -20.734375 4.523438 -20.597656 4.796875 -20.328125 C 5.078125 -20.066406 5.21875 -19.75 5.21875 -19.375 C 5.21875 -18.957031 5.078125 -18.609375 4.796875 -18.328125 C 4.523438 -18.054688 4.179688 -17.921875 3.765625 -17.921875 Z M 3.765625 -17.921875 "/></g></g></g><g fill="#f4f6fa" fill-opacity="1"><g transform="translate(871.052499, 55.774504)"><g><path d="M 15.125 -14.703125 L 8.578125 0 L 6.546875 0 L 0.03125 -14.703125 L 2.09375 -14.703125 L 7.609375 -2.1875 L 13.171875 -14.703125 Z M 15.125 -14.703125 "/></g></g></g><g fill="#f4f6fa" fill-opacity="1"><g transform="translate(885.779926, 55.774504)"><g><path d="M 15.5625 -6.734375 L 3.265625 -6.734375 C 3.378906 -5.203125 3.96875 -3.96875 5.03125 -3.03125 C 6.09375 -2.09375 7.4375 -1.625 9.0625 -1.625 C 9.96875 -1.625 10.800781 -1.785156 11.5625 -2.109375 C 12.332031 -2.429688 13 -2.910156 13.5625 -3.546875 L 14.671875 -2.265625 C 14.023438 -1.484375 13.210938 -0.882812 12.234375 -0.46875 C 11.253906 -0.0625 10.175781 0.140625 9 0.140625 C 7.488281 0.140625 6.148438 -0.175781 4.984375 -0.8125 C 3.828125 -1.457031 2.921875 -2.347656 2.265625 -3.484375 C 1.609375 -4.628906 1.28125 -5.921875 1.28125 -7.359375 C 1.28125 -8.785156 1.59375 -10.066406 2.21875 -11.203125 C 2.84375 -12.347656 3.695312 -13.234375 4.78125 -13.859375 C 5.875 -14.492188 7.101562 -14.8125 8.46875 -14.8125 C 9.832031 -14.8125 11.050781 -14.492188 12.125 -13.859375 C 13.207031 -13.234375 14.054688 -12.351562 14.671875 -11.21875 C 15.285156 -10.09375 15.59375 -8.804688 15.59375 -7.359375 Z M 8.46875 -13.109375 C 7.050781 -13.109375 5.863281 -12.65625 4.90625 -11.75 C 3.945312 -10.851562 3.398438 -9.675781 3.265625 -8.21875 L 13.703125 -8.21875 C 13.566406 -9.675781 13.019531 -10.851562 12.0625 -11.75 C 11.101562 -12.65625 9.90625 -13.109375 8.46875 -13.109375 Z M 8.46875 -13.109375 "/></g></g></g><g fill="#f4f6fa" fill-opacity="1"><g transform="translate(902.65921, 55.774504)"><g><path d="M 4.671875 -11.828125 C 5.128906 -12.816406 5.820312 -13.5625 6.75 -14.0625 C 7.675781 -14.5625 8.816406 -14.8125 10.171875 -14.8125 L 10.171875 -12.890625 L 9.703125 -12.921875 C 8.148438 -12.921875 6.9375 -12.441406 6.0625 -11.484375 C 5.1875 -10.535156 4.75 -9.203125 4.75 -7.484375 L 4.75 0 L 2.765625 0 L 2.765625 -14.703125 L 4.671875 -14.703125 Z M 4.671875 -11.828125 "/></g></g></g><g fill="#f4f6fa" fill-opacity="1"><g transform="translate(825.790377, 94.704358)"><g><path d="M 6.15625 5.421875 C 5.101562 3.703125 4.296875 1.734375 3.734375 -0.484375 C 3.179688 -2.710938 2.90625 -5.101562 2.90625 -7.65625 C 2.90625 -10.207031 3.179688 -12.601562 3.734375 -14.84375 C 4.296875 -17.09375 5.101562 -19.054688 6.15625 -20.734375 L 8.046875 -20.734375 C 6.953125 -18.859375 6.144531 -16.835938 5.625 -14.671875 C 5.113281 -12.515625 4.859375 -10.175781 4.859375 -7.65625 C 4.859375 -5.144531 5.113281 -2.804688 5.625 -0.640625 C 6.144531 1.515625 6.953125 3.535156 8.046875 5.421875 Z M 6.15625 5.421875 "/></g></g></g><g fill="#f4f6fa" fill-opacity="1"><g transform="translate(834.984554, 94.704358)"><g><path d="M 16.546875 0 L 12.078125 -6.296875 C 11.578125 -6.234375 11.054688 -6.203125 10.515625 -6.203125 L 5.25 -6.203125 L 5.25 0 L 3.1875 0 L 3.1875 -19.5625 L 10.515625 -19.5625 C 13.003906 -19.5625 14.957031 -18.960938 16.375 -17.765625 C 17.789062 -16.578125 18.5 -14.941406 18.5 -12.859375 C 18.5 -11.328125 18.113281 -10.035156 17.34375 -8.984375 C 16.570312 -7.929688 15.46875 -7.171875 14.03125 -6.703125 L 18.8125 0 Z M 10.453125 -7.96875 C 12.390625 -7.96875 13.867188 -8.394531 14.890625 -9.25 C 15.921875 -10.101562 16.4375 -11.304688 16.4375 -12.859375 C 16.4375 -14.441406 15.921875 -15.65625 14.890625 -16.5 C 13.867188 -17.351562 12.390625 -17.78125 10.453125 -17.78125 L 5.25 -17.78125 L 5.25 -7.96875 Z M 10.453125 -7.96875 "/></g></g></g><g fill="#f4f6fa" fill-opacity="1"><g transform="translate(854.630452, 94.704358)"><g><path d="M 15.453125 0 L 9.140625 -8.609375 L 2.84375 0 L 0.46875 0 L 7.90625 -10.0625 L 0.953125 -19.5625 L 3.328125 -19.5625 L 9.21875 -11.578125 L 15.09375 -19.5625 L 17.328125 -19.5625 L 10.40625 -10.125 L 17.859375 0 Z M 15.453125 0 "/></g></g></g><g fill="#f4f6fa" fill-opacity="1"><g transform="translate(872.962921, 94.704358)"><g><path d="M 1.125 5.421875 C 2.21875 3.535156 3.023438 1.519531 3.546875 -0.625 C 4.066406 -2.78125 4.328125 -5.125 4.328125 -7.65625 C 4.328125 -10.1875 4.066406 -12.53125 3.546875 -14.6875 C 3.023438 -16.84375 2.21875 -18.859375 1.125 -20.734375 L 3.015625 -20.734375 C 4.054688 -19.054688 4.863281 -17.09375 5.4375 -14.84375 C 6.007812 -12.601562 6.296875 -10.207031 6.296875 -7.65625 C 6.296875 -5.101562 6.015625 -2.707031 5.453125 -0.46875 C 4.890625 1.757812 4.078125 3.722656 3.015625 5.421875 Z M 1.125 5.421875 "/></g></g></g><g clip-path="url(#89500762a3)"><g transform="matrix(1, 0, 0, 1, 42, 19)"><g clip-path="url(#d6077346ab)"><g clip-path="url(#bc18169adc)"><path fill="#eceff4" d="M 0.28125 0.289062 L 199.121094 0.289062 L 199.121094 97.429688 L 0.28125 97.429688 Z M 0.28125 0.289062 " fill-opacity="1" fill-rule="nonzero"/></g></g></g></g><g clip-path="url(#339264a8e9)"><path stroke-linecap="butt" transform="matrix(0.748651, 0, 0, 0.748651, 42.280837, 19.287132)" fill="none" stroke-linejoin="miter" d="M 0.00576877 0.0025792 L 265.791107 0.0025792 L 265.791107 129.751573 L 0.00576877 129.751573 Z M 0.00576877 0.0025792 " stroke="#d8dee9" stroke-width="10" stroke-opacity="1" stroke-miterlimit="4"/></g><g fill="#000000" fill-opacity="1"><g transform="translate(79.514529, 63.707101)"><g><path d="M 8.578125 0.171875 C 7.128906 0.171875 5.738281 -0.0625 4.40625 -0.53125 C 3.070312 -1 2.039062 -1.613281 1.3125 -2.375 L 2.125 -3.96875 C 2.832031 -3.257812 3.769531 -2.6875 4.9375 -2.25 C 6.113281 -1.8125 7.328125 -1.59375 8.578125 -1.59375 C 10.328125 -1.59375 11.640625 -1.910156 12.515625 -2.546875 C 13.398438 -3.191406 13.84375 -4.03125 13.84375 -5.0625 C 13.84375 -5.84375 13.601562 -6.460938 13.125 -6.921875 C 12.644531 -7.390625 12.0625 -7.75 11.375 -8 C 10.6875 -8.257812 9.726562 -8.535156 8.5 -8.828125 C 7.03125 -9.203125 5.851562 -9.5625 4.96875 -9.90625 C 4.09375 -10.25 3.34375 -10.773438 2.71875 -11.484375 C 2.09375 -12.191406 1.78125 -13.15625 1.78125 -14.375 C 1.78125 -15.351562 2.039062 -16.25 2.5625 -17.0625 C 3.09375 -17.875 3.894531 -18.519531 4.96875 -19 C 6.050781 -19.488281 7.394531 -19.734375 9 -19.734375 C 10.113281 -19.734375 11.207031 -19.578125 12.28125 -19.265625 C 13.351562 -18.960938 14.28125 -18.539062 15.0625 -18 L 14.375 -16.359375 C 13.550781 -16.890625 12.671875 -17.289062 11.734375 -17.5625 C 10.804688 -17.832031 9.894531 -17.96875 9 -17.96875 C 7.28125 -17.96875 5.988281 -17.632812 5.125 -16.96875 C 4.257812 -16.3125 3.828125 -15.460938 3.828125 -14.421875 C 3.828125 -13.640625 4.0625 -13.007812 4.53125 -12.53125 C 5.007812 -12.0625 5.609375 -11.695312 6.328125 -11.4375 C 7.046875 -11.1875 8.007812 -10.914062 9.21875 -10.625 C 10.65625 -10.269531 11.816406 -9.921875 12.703125 -9.578125 C 13.585938 -9.234375 14.335938 -8.707031 14.953125 -8 C 15.566406 -7.300781 15.875 -6.359375 15.875 -5.171875 C 15.875 -4.179688 15.609375 -3.28125 15.078125 -2.46875 C 14.546875 -1.664062 13.726562 -1.023438 12.625 -0.546875 C 11.53125 -0.0664062 10.179688 0.171875 8.578125 0.171875 Z M 8.578125 0.171875 "/></g></g></g><g fill="#000000" fill-opacity="1"><g transform="translate(96.701208, 63.707101)"><g><path d="M 10.515625 -0.890625 C 10.140625 -0.554688 9.675781 -0.300781 9.125 -0.125 C 8.570312 0.0507812 8 0.140625 7.40625 0.140625 C 6.03125 0.140625 4.96875 -0.226562 4.21875 -0.96875 C 3.476562 -1.71875 3.109375 -2.773438 3.109375 -4.140625 L 3.109375 -13.03125 L 0.46875 -13.03125 L 0.46875 -14.703125 L 3.109375 -14.703125 L 3.109375 -17.921875 L 5.09375 -17.921875 L 5.09375 -14.703125 L 9.5625 -14.703125 L 9.5625 -13.03125 L 5.09375 -13.03125 L 5.09375 -4.25 C 5.09375 -3.375 5.3125 -2.707031 5.75 -2.25 C 6.1875 -1.789062 6.8125 -1.5625 7.625 -1.5625 C 8.039062 -1.5625 8.4375 -1.625 8.8125 -1.75 C 9.195312 -1.882812 9.53125 -2.070312 9.8125 -2.3125 Z M 10.515625 -0.890625 "/></g></g></g><g fill="#000000" fill-opacity="1"><g transform="translate(108.047219, 63.707101)"><g><path d="M 2.765625 -14.703125 L 4.75 -14.703125 L 4.75 0 L 2.765625 0 Z M 3.765625 -17.921875 C 3.359375 -17.921875 3.015625 -18.054688 2.734375 -18.328125 C 2.453125 -18.609375 2.3125 -18.945312 2.3125 -19.34375 C 2.3125 -19.71875 2.453125 -20.039062 2.734375 -20.3125 C 3.015625 -20.59375 3.359375 -20.734375 3.765625 -20.734375 C 4.179688 -20.734375 4.523438 -20.597656 4.796875 -20.328125 C 5.078125 -20.066406 5.21875 -19.75 5.21875 -19.375 C 5.21875 -18.957031 5.078125 -18.609375 4.796875 -18.328125 C 4.523438 -18.054688 4.179688 -17.921875 3.765625 -17.921875 Z M 3.765625 -17.921875 "/></g></g></g><g fill="#000000" fill-opacity="1"><g transform="translate(115.564641, 63.707101)"><g><path d="M 21.109375 -14.8125 C 22.953125 -14.8125 24.398438 -14.28125 25.453125 -13.21875 C 26.503906 -12.15625 27.03125 -10.59375 27.03125 -8.53125 L 27.03125 0 L 25.046875 0 L 25.046875 -8.328125 C 25.046875 -9.859375 24.675781 -11.023438 23.9375 -11.828125 C 23.207031 -12.628906 22.171875 -13.03125 20.828125 -13.03125 C 19.296875 -13.03125 18.09375 -12.554688 17.21875 -11.609375 C 16.34375 -10.671875 15.90625 -9.375 15.90625 -7.71875 L 15.90625 0 L 13.921875 0 L 13.921875 -8.328125 C 13.921875 -9.859375 13.550781 -11.023438 12.8125 -11.828125 C 12.082031 -12.628906 11.035156 -13.03125 9.671875 -13.03125 C 8.160156 -13.03125 6.960938 -12.554688 6.078125 -11.609375 C 5.191406 -10.671875 4.75 -9.375 4.75 -7.71875 L 4.75 0 L 2.765625 0 L 2.765625 -14.703125 L 4.671875 -14.703125 L 4.671875 -12.015625 C 5.191406 -12.910156 5.914062 -13.597656 6.84375 -14.078125 C 7.78125 -14.566406 8.851562 -14.8125 10.0625 -14.8125 C 11.289062 -14.8125 12.359375 -14.550781 13.265625 -14.03125 C 14.171875 -13.507812 14.847656 -12.738281 15.296875 -11.71875 C 15.828125 -12.6875 16.597656 -13.441406 17.609375 -13.984375 C 18.628906 -14.535156 19.796875 -14.8125 21.109375 -14.8125 Z M 21.109375 -14.8125 "/></g></g></g><g fill="#000000" fill-opacity="1"><g transform="translate(145.215168, 63.707101)"><g><path d="M 16.015625 -14.703125 L 16.015625 0 L 14.109375 0 L 14.109375 -2.6875 C 13.585938 -1.789062 12.867188 -1.09375 11.953125 -0.59375 C 11.046875 -0.101562 10.003906 0.140625 8.828125 0.140625 C 6.910156 0.140625 5.394531 -0.394531 4.28125 -1.46875 C 3.175781 -2.539062 2.625 -4.109375 2.625 -6.171875 L 2.625 -14.703125 L 4.609375 -14.703125 L 4.609375 -6.375 C 4.609375 -4.820312 4.988281 -3.644531 5.75 -2.84375 C 6.519531 -2.050781 7.613281 -1.65625 9.03125 -1.65625 C 10.570312 -1.65625 11.789062 -2.125 12.6875 -3.0625 C 13.582031 -4 14.03125 -5.304688 14.03125 -6.984375 L 14.03125 -14.703125 Z M 16.015625 -14.703125 "/></g></g></g><g fill="#000000" fill-opacity="1"><g transform="translate(164.022706, 63.707101)"><g><path d="M 2.765625 -20.734375 L 4.75 -20.734375 L 4.75 0 L 2.765625 0 Z M 2.765625 -20.734375 "/></g></g></g><g fill="#000000" fill-opacity="1"><g transform="translate(171.540128, 63.707101)"><g><path d="M 16.015625 -14.703125 L 16.015625 0 L 14.109375 0 L 14.109375 -2.6875 C 13.585938 -1.789062 12.867188 -1.09375 11.953125 -0.59375 C 11.046875 -0.101562 10.003906 0.140625 8.828125 0.140625 C 6.910156 0.140625 5.394531 -0.394531 4.28125 -1.46875 C 3.175781 -2.539062 2.625 -4.109375 2.625 -6.171875 L 2.625 -14.703125 L 4.609375 -14.703125 L 4.609375 -6.375 C 4.609375 -4.820312 4.988281 -3.644531 5.75 -2.84375 C 6.519531 -2.050781 7.613281 -1.65625 9.03125 -1.65625 C 10.570312 -1.65625 11.789062 -2.125 12.6875 -3.0625 C 13.582031 -4 14.03125 -5.304688 14.03125 -6.984375 L 14.03125 -14.703125 Z M 16.015625 -14.703125 "/></g></g></g><g fill="#000000" fill-opacity="1"><g transform="translate(190.347666, 63.707101)"><g><path d="M 6.703125 0.140625 C 5.515625 0.140625 4.375 -0.03125 3.28125 -0.375 C 2.195312 -0.71875 1.347656 -1.148438 0.734375 -1.671875 L 1.625 -3.25 C 2.238281 -2.757812 3.007812 -2.359375 3.9375 -2.046875 C 4.875 -1.742188 5.84375 -1.59375 6.84375 -1.59375 C 8.1875 -1.59375 9.179688 -1.800781 9.828125 -2.21875 C 10.472656 -2.632812 10.796875 -3.226562 10.796875 -4 C 10.796875 -4.539062 10.617188 -4.960938 10.265625 -5.265625 C 9.910156 -5.578125 9.460938 -5.8125 8.921875 -5.96875 C 8.378906 -6.125 7.660156 -6.273438 6.765625 -6.421875 C 5.566406 -6.648438 4.601562 -6.878906 3.875 -7.109375 C 3.15625 -7.347656 2.539062 -7.742188 2.03125 -8.296875 C 1.519531 -8.859375 1.265625 -9.632812 1.265625 -10.625 C 1.265625 -11.851562 1.773438 -12.859375 2.796875 -13.640625 C 3.816406 -14.421875 5.242188 -14.8125 7.078125 -14.8125 C 8.023438 -14.8125 8.972656 -14.6875 9.921875 -14.4375 C 10.867188 -14.1875 11.648438 -13.859375 12.265625 -13.453125 L 11.40625 -11.859375 C 10.195312 -12.691406 8.753906 -13.109375 7.078125 -13.109375 C 5.804688 -13.109375 4.847656 -12.882812 4.203125 -12.4375 C 3.566406 -11.988281 3.25 -11.398438 3.25 -10.671875 C 3.25 -10.117188 3.425781 -9.671875 3.78125 -9.328125 C 4.144531 -8.992188 4.597656 -8.75 5.140625 -8.59375 C 5.679688 -8.4375 6.425781 -8.273438 7.375 -8.109375 C 8.550781 -7.878906 9.492188 -7.648438 10.203125 -7.421875 C 10.910156 -7.203125 11.515625 -6.820312 12.015625 -6.28125 C 12.523438 -5.75 12.78125 -5.003906 12.78125 -4.046875 C 12.78125 -2.765625 12.242188 -1.742188 11.171875 -0.984375 C 10.097656 -0.234375 8.609375 0.140625 6.703125 0.140625 Z M 6.703125 0.140625 "/></g></g></g><g fill="#000000" fill-opacity="1"><g transform="translate(55.323742, 92.155841)"><g><path d="M 3.953125 3.484375 C 3.285156 2.378906 2.769531 1.113281 2.40625 -0.3125 C 2.050781 -1.75 1.875 -3.285156 1.875 -4.921875 C 1.875 -6.566406 2.050781 -8.109375 2.40625 -9.546875 C 2.769531 -10.992188 3.285156 -12.253906 3.953125 -13.328125 L 5.171875 -13.328125 C 4.460938 -12.117188 3.941406 -10.816406 3.609375 -9.421875 C 3.285156 -8.035156 3.125 -6.535156 3.125 -4.921875 C 3.125 -3.304688 3.285156 -1.800781 3.609375 -0.40625 C 3.941406 0.976562 4.460938 2.273438 5.171875 3.484375 Z M 3.953125 3.484375 "/></g></g></g><g fill="#000000" fill-opacity="1"><g transform="translate(61.235076, 92.155841)"><g><path d="M 6.75 -12.578125 C 8.351562 -12.578125 9.609375 -12.191406 10.515625 -11.421875 C 11.429688 -10.660156 11.890625 -9.609375 11.890625 -8.265625 C 11.890625 -6.921875 11.429688 -5.867188 10.515625 -5.109375 C 9.609375 -4.347656 8.351562 -3.96875 6.75 -3.96875 L 3.375 -3.96875 L 3.375 0 L 2.046875 0 L 2.046875 -12.578125 Z M 6.71875 -5.140625 C 7.96875 -5.140625 8.921875 -5.410156 9.578125 -5.953125 C 10.234375 -6.503906 10.5625 -7.273438 10.5625 -8.265625 C 10.5625 -9.285156 10.234375 -10.066406 9.578125 -10.609375 C 8.921875 -11.148438 7.96875 -11.421875 6.71875 -11.421875 L 3.375 -11.421875 L 3.375 -5.140625 Z M 6.71875 -5.140625 "/></g></g></g><g fill="#000000" fill-opacity="1"><g transform="translate(73.327248, 92.155841)"><g><path d="M 9.9375 -3.359375 L 2.921875 -3.359375 L 1.421875 0 L 0.03125 0 L 5.78125 -12.578125 L 7.09375 -12.578125 L 12.84375 0 L 11.453125 0 Z M 9.453125 -4.4375 L 6.4375 -11.1875 L 3.40625 -4.4375 Z M 9.453125 -4.4375 "/></g></g></g><g fill="#000000" fill-opacity="1"><g transform="translate(86.209996, 92.155841)"><g><path d="M 15.109375 -12.578125 L 15.109375 0 L 13.828125 0 L 13.828125 -10.0625 L 8.890625 -1.59375 L 8.265625 -1.59375 L 3.328125 -10.015625 L 3.328125 0 L 2.046875 0 L 2.046875 -12.578125 L 3.140625 -12.578125 L 8.609375 -3.25 L 14.015625 -12.578125 Z M 15.109375 -12.578125 "/></g></g></g><g fill="#000000" fill-opacity="1"><g transform="translate(103.36903, 92.155841)"><g><path d="M 11.625 -3.3125 L 9.109375 -3.3125 L 9.109375 0 L 7.8125 0 L 7.8125 -3.3125 L 0.71875 -3.3125 L 0.71875 -4.234375 L 7.390625 -12.578125 L 8.828125 -12.578125 L 2.390625 -4.453125 L 7.859375 -4.453125 L 7.859375 -7.359375 L 9.109375 -7.359375 L 9.109375 -4.453125 L 11.625 -4.453125 Z M 11.625 -3.3125 "/></g></g></g><g fill="#000000" fill-opacity="1"><g transform="translate(115.245595, 92.155841)"><g/></g></g><g fill="#000000" fill-opacity="1"><g transform="translate(119.953097, 92.155841)"><g><path d="M 9.328125 -12.6875 C 10.929688 -12.6875 12.363281 -12.351562 13.625 -11.6875 C 14.894531 -11.019531 15.878906 -10.082031 16.578125 -8.875 C 17.285156 -7.675781 17.640625 -6.304688 17.640625 -4.765625 C 17.640625 -3.242188 17.375 -2.050781 16.84375 -1.1875 C 16.320312 -0.332031 15.59375 0.09375 14.65625 0.09375 C 14.070312 0.09375 13.597656 -0.078125 13.234375 -0.421875 C 12.867188 -0.773438 12.664062 -1.257812 12.625 -1.875 C 12.269531 -1.25 11.78125 -0.765625 11.15625 -0.421875 C 10.53125 -0.078125 9.820312 0.09375 9.03125 0.09375 C 8.195312 0.09375 7.441406 -0.101562 6.765625 -0.5 C 6.085938 -0.90625 5.550781 -1.460938 5.15625 -2.171875 C 4.769531 -2.878906 4.578125 -3.675781 4.578125 -4.5625 C 4.578125 -5.445312 4.769531 -6.238281 5.15625 -6.9375 C 5.550781 -7.644531 6.085938 -8.195312 6.765625 -8.59375 C 7.441406 -8.988281 8.195312 -9.1875 9.03125 -9.1875 C 9.800781 -9.1875 10.492188 -9.019531 11.109375 -8.6875 C 11.722656 -8.351562 12.21875 -7.890625 12.59375 -7.296875 L 12.59375 -9.109375 L 13.765625 -9.109375 L 13.765625 -2.296875 C 13.765625 -1.816406 13.863281 -1.46875 14.0625 -1.25 C 14.269531 -1.039062 14.539062 -0.9375 14.875 -0.9375 C 15.4375 -0.9375 15.878906 -1.269531 16.203125 -1.9375 C 16.535156 -2.613281 16.703125 -3.550781 16.703125 -4.75 C 16.703125 -6.132812 16.390625 -7.359375 15.765625 -8.421875 C 15.148438 -9.484375 14.28125 -10.304688 13.15625 -10.890625 C 12.039062 -11.472656 10.765625 -11.765625 9.328125 -11.765625 C 7.878906 -11.765625 6.59375 -11.460938 5.46875 -10.859375 C 4.351562 -10.253906 3.484375 -9.40625 2.859375 -8.3125 C 2.234375 -7.21875 1.921875 -5.96875 1.921875 -4.5625 C 1.921875 -3.164062 2.226562 -1.914062 2.84375 -0.8125 C 3.457031 0.289062 4.316406 1.144531 5.421875 1.75 C 6.535156 2.363281 7.8125 2.671875 9.25 2.671875 C 9.8125 2.671875 10.398438 2.601562 11.015625 2.46875 C 11.640625 2.34375 12.203125 2.148438 12.703125 1.890625 L 13.015625 2.765625 C 12.492188 3.023438 11.894531 3.226562 11.21875 3.375 C 10.539062 3.519531 9.882812 3.59375 9.25 3.59375 C 7.625 3.59375 6.179688 3.242188 4.921875 2.546875 C 3.660156 1.859375 2.679688 0.894531 1.984375 -0.34375 C 1.285156 -1.582031 0.9375 -2.988281 0.9375 -4.5625 C 0.9375 -6.144531 1.285156 -7.550781 1.984375 -8.78125 C 2.691406 -10.007812 3.679688 -10.96875 4.953125 -11.65625 C 6.234375 -12.34375 7.691406 -12.6875 9.328125 -12.6875 Z M 9.203125 -0.953125 C 9.847656 -0.953125 10.425781 -1.097656 10.9375 -1.390625 C 11.457031 -1.691406 11.863281 -2.113281 12.15625 -2.65625 C 12.457031 -3.207031 12.609375 -3.84375 12.609375 -4.5625 C 12.609375 -5.269531 12.457031 -5.894531 12.15625 -6.4375 C 11.863281 -6.988281 11.457031 -7.410156 10.9375 -7.703125 C 10.425781 -7.992188 9.847656 -8.140625 9.203125 -8.140625 C 8.546875 -8.140625 7.953125 -7.988281 7.421875 -7.6875 C 6.898438 -7.382812 6.492188 -6.960938 6.203125 -6.421875 C 5.910156 -5.890625 5.765625 -5.269531 5.765625 -4.5625 C 5.765625 -3.851562 5.910156 -3.226562 6.203125 -2.6875 C 6.492188 -2.144531 6.898438 -1.71875 7.421875 -1.40625 C 7.953125 -1.101562 8.546875 -0.953125 9.203125 -0.953125 Z M 9.203125 -0.953125 "/></g></g></g><g fill="#000000" fill-opacity="1"><g transform="translate(138.513601, 92.155841)"><g/></g></g><g fill="#000000" fill-opacity="1"><g transform="translate(143.221104, 92.155841)"><g><path d="M 9.515625 -1.15625 L 9.515625 0 L 0.703125 0 L 0.703125 -0.921875 L 5.921875 -6.03125 C 6.585938 -6.675781 7.035156 -7.234375 7.265625 -7.703125 C 7.503906 -8.179688 7.625 -8.660156 7.625 -9.140625 C 7.625 -9.890625 7.367188 -10.46875 6.859375 -10.875 C 6.347656 -11.289062 5.617188 -11.5 4.671875 -11.5 C 3.203125 -11.5 2.054688 -11.03125 1.234375 -10.09375 L 0.328125 -10.890625 C 0.816406 -11.460938 1.441406 -11.90625 2.203125 -12.21875 C 2.960938 -12.53125 3.820312 -12.6875 4.78125 -12.6875 C 6.0625 -12.6875 7.078125 -12.382812 7.828125 -11.78125 C 8.578125 -11.175781 8.953125 -10.347656 8.953125 -9.296875 C 8.953125 -8.640625 8.804688 -8.007812 8.515625 -7.40625 C 8.222656 -6.8125 7.675781 -6.128906 6.875 -5.359375 L 2.609375 -1.15625 Z M 9.515625 -1.15625 "/></g></g></g><g fill="#000000" fill-opacity="1"><g transform="translate(153.426683, 92.155841)"><g><path d="M 9.515625 -1.15625 L 9.515625 0 L 0.703125 0 L 0.703125 -0.921875 L 5.921875 -6.03125 C 6.585938 -6.675781 7.035156 -7.234375 7.265625 -7.703125 C 7.503906 -8.179688 7.625 -8.660156 7.625 -9.140625 C 7.625 -9.890625 7.367188 -10.46875 6.859375 -10.875 C 6.347656 -11.289062 5.617188 -11.5 4.671875 -11.5 C 3.203125 -11.5 2.054688 -11.03125 1.234375 -10.09375 L 0.328125 -10.890625 C 0.816406 -11.460938 1.441406 -11.90625 2.203125 -12.21875 C 2.960938 -12.53125 3.820312 -12.6875 4.78125 -12.6875 C 6.0625 -12.6875 7.078125 -12.382812 7.828125 -11.78125 C 8.578125 -11.175781 8.953125 -10.347656 8.953125 -9.296875 C 8.953125 -8.640625 8.804688 -8.007812 8.515625 -7.40625 C 8.222656 -6.8125 7.675781 -6.128906 6.875 -5.359375 L 2.609375 -1.15625 Z M 9.515625 -1.15625 "/></g></g></g><g fill="#000000" fill-opacity="1"><g transform="translate(163.219006, 92.155841)"><g><path d="M 11.625 -3.3125 L 9.109375 -3.3125 L 9.109375 0 L 7.8125 0 L 7.8125 -3.3125 L 0.71875 -3.3125 L 0.71875 -4.234375 L 7.390625 -12.578125 L 8.828125 -12.578125 L 2.390625 -4.453125 L 7.859375 -4.453125 L 7.859375 -7.359375 L 9.109375 -7.359375 L 9.109375 -4.453125 L 11.625 -4.453125 Z M 11.625 -3.3125 "/></g></g></g><g fill="#000000" fill-opacity="1"><g transform="translate(175.275251, 92.155841)"><g><path d="M 10.90625 -6.28125 L 12.1875 -6.28125 L 12.1875 -1.484375 C 11.59375 -0.972656 10.894531 -0.578125 10.09375 -0.296875 C 9.289062 -0.0234375 8.445312 0.109375 7.5625 0.109375 C 6.300781 0.109375 5.164062 -0.164062 4.15625 -0.71875 C 3.15625 -1.269531 2.367188 -2.03125 1.796875 -3 C 1.222656 -3.976562 0.9375 -5.070312 0.9375 -6.28125 C 0.9375 -7.5 1.222656 -8.59375 1.796875 -9.5625 C 2.367188 -10.539062 3.15625 -11.304688 4.15625 -11.859375 C 5.164062 -12.410156 6.304688 -12.6875 7.578125 -12.6875 C 8.535156 -12.6875 9.414062 -12.53125 10.21875 -12.21875 C 11.019531 -11.914062 11.695312 -11.46875 12.25 -10.875 L 11.421875 -10.03125 C 10.429688 -11.007812 9.171875 -11.5 7.640625 -11.5 C 6.617188 -11.5 5.695312 -11.273438 4.875 -10.828125 C 4.050781 -10.378906 3.40625 -9.753906 2.9375 -8.953125 C 2.476562 -8.160156 2.25 -7.269531 2.25 -6.28125 C 2.25 -5.300781 2.476562 -4.414062 2.9375 -3.625 C 3.40625 -2.832031 4.046875 -2.207031 4.859375 -1.75 C 5.679688 -1.300781 6.601562 -1.078125 7.625 -1.078125 C 8.914062 -1.078125 10.007812 -1.398438 10.90625 -2.046875 Z M 10.90625 -6.28125 "/></g></g></g><g fill="#000000" fill-opacity="1"><g transform="translate(189.16418, 92.155841)"><g><path d="M 6.640625 -9.515625 C 7.535156 -9.515625 8.34375 -9.3125 9.0625 -8.90625 C 9.78125 -8.507812 10.34375 -7.945312 10.75 -7.21875 C 11.15625 -6.488281 11.359375 -5.65625 11.359375 -4.71875 C 11.359375 -3.789062 11.15625 -2.957031 10.75 -2.21875 C 10.34375 -1.488281 9.78125 -0.921875 9.0625 -0.515625 C 8.34375 -0.109375 7.535156 0.09375 6.640625 0.09375 C 5.859375 0.09375 5.148438 -0.0703125 4.515625 -0.40625 C 3.890625 -0.75 3.382812 -1.238281 3 -1.875 L 3 0 L 1.78125 0 L 1.78125 -13.328125 L 3.046875 -13.328125 L 3.046875 -7.65625 C 3.441406 -8.269531 3.945312 -8.734375 4.5625 -9.046875 C 5.1875 -9.359375 5.878906 -9.515625 6.640625 -9.515625 Z M 6.5625 -1.046875 C 7.21875 -1.046875 7.8125 -1.195312 8.34375 -1.5 C 8.882812 -1.800781 9.304688 -2.234375 9.609375 -2.796875 C 9.921875 -3.359375 10.078125 -4 10.078125 -4.71875 C 10.078125 -5.4375 9.921875 -6.078125 9.609375 -6.640625 C 9.304688 -7.210938 8.882812 -7.648438 8.34375 -7.953125 C 7.8125 -8.253906 7.21875 -8.40625 6.5625 -8.40625 C 5.882812 -8.40625 5.28125 -8.253906 4.75 -7.953125 C 4.21875 -7.648438 3.796875 -7.210938 3.484375 -6.640625 C 3.179688 -6.078125 3.03125 -5.4375 3.03125 -4.71875 C 3.03125 -4 3.179688 -3.359375 3.484375 -2.796875 C 3.796875 -2.234375 4.21875 -1.800781 4.75 -1.5 C 5.28125 -1.195312 5.882812 -1.046875 6.5625 -1.046875 Z M 6.5625 -1.046875 "/></g></g></g><g fill="#000000" fill-opacity="1"><g transform="translate(201.346198, 92.155841)"><g><path d="M 6.640625 -9.515625 C 7.535156 -9.515625 8.34375 -9.3125 9.0625 -8.90625 C 9.78125 -8.507812 10.34375 -7.945312 10.75 -7.21875 C 11.15625 -6.488281 11.359375 -5.65625 11.359375 -4.71875 C 11.359375 -3.78125 11.15625 -2.941406 10.75 -2.203125 C 10.34375 -1.472656 9.78125 -0.90625 9.0625 -0.5 C 8.351562 -0.101562 7.546875 0.09375 6.640625 0.09375 C 5.878906 0.09375 5.1875 -0.0625 4.5625 -0.375 C 3.945312 -0.695312 3.441406 -1.164062 3.046875 -1.78125 L 3.046875 3.484375 L 1.78125 3.484375 L 1.78125 -9.453125 L 3 -9.453125 L 3 -7.578125 C 3.382812 -8.203125 3.890625 -8.679688 4.515625 -9.015625 C 5.148438 -9.347656 5.859375 -9.515625 6.640625 -9.515625 Z M 6.5625 -1.046875 C 7.21875 -1.046875 7.8125 -1.195312 8.34375 -1.5 C 8.882812 -1.800781 9.304688 -2.234375 9.609375 -2.796875 C 9.921875 -3.359375 10.078125 -4 10.078125 -4.71875 C 10.078125 -5.4375 9.921875 -6.070312 9.609375 -6.625 C 9.304688 -7.1875 8.882812 -7.625 8.34375 -7.9375 C 7.8125 -8.25 7.21875 -8.40625 6.5625 -8.40625 C 5.882812 -8.40625 5.28125 -8.25 4.75 -7.9375 C 4.21875 -7.625 3.796875 -7.1875 3.484375 -6.625 C 3.179688 -6.070312 3.03125 -5.4375 3.03125 -4.71875 C 3.03125 -4 3.179688 -3.359375 3.484375 -2.796875 C 3.796875 -2.234375 4.21875 -1.800781 4.75 -1.5 C 5.28125 -1.195312 5.882812 -1.046875 6.5625 -1.046875 Z M 6.5625 -1.046875 "/></g></g></g><g fill="#000000" fill-opacity="1"><g transform="translate(213.528216, 92.155841)"><g><path d="M 4.3125 0.09375 C 3.539062 0.09375 2.804688 -0.015625 2.109375 -0.234375 C 1.410156 -0.460938 0.863281 -0.742188 0.46875 -1.078125 L 1.046875 -2.078125 C 1.441406 -1.765625 1.9375 -1.507812 2.53125 -1.3125 C 3.132812 -1.125 3.757812 -1.03125 4.40625 -1.03125 C 5.269531 -1.03125 5.90625 -1.160156 6.3125 -1.421875 C 6.726562 -1.691406 6.9375 -2.070312 6.9375 -2.5625 C 6.9375 -2.914062 6.820312 -3.191406 6.59375 -3.390625 C 6.363281 -3.585938 6.070312 -3.734375 5.71875 -3.828125 C 5.375 -3.929688 4.914062 -4.03125 4.34375 -4.125 C 3.582031 -4.269531 2.96875 -4.414062 2.5 -4.5625 C 2.03125 -4.71875 1.628906 -4.972656 1.296875 -5.328125 C 0.972656 -5.691406 0.8125 -6.191406 0.8125 -6.828125 C 0.8125 -7.617188 1.140625 -8.265625 1.796875 -8.765625 C 2.453125 -9.265625 3.367188 -9.515625 4.546875 -9.515625 C 5.160156 -9.515625 5.769531 -9.429688 6.375 -9.265625 C 6.988281 -9.109375 7.492188 -8.898438 7.890625 -8.640625 L 7.328125 -7.625 C 6.546875 -8.15625 5.617188 -8.421875 4.546875 -8.421875 C 3.734375 -8.421875 3.117188 -8.273438 2.703125 -7.984375 C 2.285156 -7.703125 2.078125 -7.328125 2.078125 -6.859375 C 2.078125 -6.503906 2.191406 -6.21875 2.421875 -6 C 2.660156 -5.78125 2.953125 -5.617188 3.296875 -5.515625 C 3.648438 -5.421875 4.132812 -5.316406 4.75 -5.203125 C 5.5 -5.066406 6.097656 -4.925781 6.546875 -4.78125 C 7.003906 -4.632812 7.394531 -4.382812 7.71875 -4.03125 C 8.050781 -3.6875 8.21875 -3.210938 8.21875 -2.609375 C 8.21875 -1.773438 7.867188 -1.113281 7.171875 -0.625 C 6.484375 -0.144531 5.53125 0.09375 4.3125 0.09375 Z M 4.3125 0.09375 "/></g></g></g><g fill="#000000" fill-opacity="1"><g transform="translate(222.314356, 92.155841)"><g><path d="M 0.71875 3.484375 C 1.425781 2.273438 1.945312 0.976562 2.28125 -0.40625 C 2.613281 -1.789062 2.78125 -3.296875 2.78125 -4.921875 C 2.78125 -6.546875 2.613281 -8.050781 2.28125 -9.4375 C 1.945312 -10.820312 1.425781 -12.117188 0.71875 -13.328125 L 1.9375 -13.328125 C 2.613281 -12.253906 3.132812 -10.992188 3.5 -9.546875 C 3.863281 -8.109375 4.046875 -6.566406 4.046875 -4.921875 C 4.046875 -3.285156 3.863281 -1.75 3.5 -0.3125 C 3.144531 1.125 2.625 2.390625 1.9375 3.484375 Z M 0.71875 3.484375 "/></g></g></g><path stroke-linecap="butt" transform="matrix(0.748651, 0.000000000000000698, -0.000000000000000698, 0.748651, 241.274659, 64.864297)" fill="none" stroke-linejoin="miter" d="M -0.00163151 4.000633 L 102.620447 4.000633 " stroke="#20365a" stroke-width="8" stroke-opacity="1" stroke-miterlimit="4"/><path stroke-linecap="round" transform="matrix(0.748651, 0.000000000000000698, -0.000000000000000698, 0.748651, 241.274659, 64.864297)" fill="none" stroke-linejoin="round" d="M 86.617705 -8.000118 L 102.620447 4.000633 L 86.617705 16.001385 " stroke="#20365a" stroke-width="8" stroke-opacity="1" stroke-miterlimit="4"/><path stroke-linecap="butt" transform="matrix(0.748651, 0.0000000000000002, -0.0000000000000002, 0.748651, 953.480173, 64.864297)" fill="none" stroke-linejoin="miter" d="M 0.000395357 4.000633 L 102.617256 4.000633 " stroke="#20365a" stroke-width="8" stroke-opacity="1" stroke-miterlimit="4"/><path stroke-linecap="round" transform="matrix(0.748651, 0.0000000000000002, -0.0000000000000002, 0.748651, 953.480173, 64.864297)" fill="none" stroke-linejoin="round" d="M 86.619732 -8.000118 L 102.617256 4.000633 L 86.619732 16.001385 " stroke="#20365a" stroke-width="8" stroke-opacity="1" stroke-miterlimit="4"/><g fill="#000000" fill-opacity="1"><g transform="translate(588.31229, 41.596932)"><g><path d="M 10.015625 0.140625 C 8.347656 0.140625 6.847656 -0.222656 5.515625 -0.953125 C 4.179688 -1.691406 3.132812 -2.710938 2.375 -4.015625 C 1.625 -5.316406 1.25 -6.773438 1.25 -8.390625 C 1.25 -9.992188 1.625 -11.445312 2.375 -12.75 C 3.132812 -14.050781 4.1875 -15.066406 5.53125 -15.796875 C 6.875 -16.535156 8.375 -16.90625 10.03125 -16.90625 C 11.28125 -16.90625 12.429688 -16.695312 13.484375 -16.28125 C 14.535156 -15.875 15.429688 -15.269531 16.171875 -14.46875 L 15.046875 -13.34375 C 13.734375 -14.664062 12.078125 -15.328125 10.078125 -15.328125 C 8.753906 -15.328125 7.550781 -15.023438 6.46875 -14.421875 C 5.382812 -13.816406 4.535156 -12.984375 3.921875 -11.921875 C 3.304688 -10.867188 3 -9.691406 3 -8.390625 C 3 -7.078125 3.304688 -5.890625 3.921875 -4.828125 C 4.535156 -3.773438 5.382812 -2.945312 6.46875 -2.34375 C 7.550781 -1.738281 8.753906 -1.4375 10.078125 -1.4375 C 12.097656 -1.4375 13.753906 -2.109375 15.046875 -3.453125 L 16.171875 -2.328125 C 15.429688 -1.523438 14.53125 -0.910156 13.46875 -0.484375 C 12.40625 -0.0664062 11.253906 0.140625 10.015625 0.140625 Z M 10.015625 0.140625 "/></g></g></g><g fill="#000000" fill-opacity="1"><g transform="translate(605.537283, 41.596932)"><g><path d="M 8.796875 -12.6875 C 10.367188 -12.6875 11.625 -12.226562 12.5625 -11.3125 C 13.5 -10.394531 13.96875 -9.0625 13.96875 -7.3125 L 13.96875 0 L 12.265625 0 L 12.265625 -7.140625 C 12.265625 -8.453125 11.9375 -9.445312 11.28125 -10.125 C 10.625 -10.8125 9.691406 -11.15625 8.484375 -11.15625 C 7.117188 -11.15625 6.039062 -10.753906 5.25 -9.953125 C 4.46875 -9.148438 4.078125 -8.035156 4.078125 -6.609375 L 4.078125 0 L 2.375 0 L 2.375 -17.765625 L 4.078125 -17.765625 L 4.078125 -10.390625 C 4.535156 -11.128906 5.171875 -11.695312 5.984375 -12.09375 C 6.796875 -12.488281 7.734375 -12.6875 8.796875 -12.6875 Z M 8.796875 -12.6875 "/></g></g></g><g fill="#000000" fill-opacity="1"><g transform="translate(621.756095, 41.596932)"><g><path d="M 6.78125 -12.6875 C 8.425781 -12.6875 9.6875 -12.273438 10.5625 -11.453125 C 11.4375 -10.640625 11.875 -9.425781 11.875 -7.8125 L 11.875 0 L 10.25 0 L 10.25 -1.96875 C 9.863281 -1.3125 9.300781 -0.796875 8.5625 -0.421875 C 7.820312 -0.0546875 6.941406 0.125 5.921875 0.125 C 4.515625 0.125 3.394531 -0.207031 2.5625 -0.875 C 1.726562 -1.550781 1.3125 -2.441406 1.3125 -3.546875 C 1.3125 -4.617188 1.695312 -5.476562 2.46875 -6.125 C 3.25 -6.78125 4.488281 -7.109375 6.1875 -7.109375 L 10.1875 -7.109375 L 10.1875 -7.875 C 10.1875 -8.96875 9.878906 -9.796875 9.265625 -10.359375 C 8.660156 -10.921875 7.773438 -11.203125 6.609375 -11.203125 C 5.804688 -11.203125 5.035156 -11.070312 4.296875 -10.8125 C 3.566406 -10.550781 2.941406 -10.1875 2.421875 -9.71875 L 1.65625 -11 C 2.289062 -11.539062 3.054688 -11.957031 3.953125 -12.25 C 4.847656 -12.539062 5.789062 -12.6875 6.78125 -12.6875 Z M 6.1875 -1.21875 C 7.132812 -1.21875 7.953125 -1.4375 8.640625 -1.875 C 9.328125 -2.3125 9.84375 -2.945312 10.1875 -3.78125 L 10.1875 -5.84375 L 6.234375 -5.84375 C 4.078125 -5.84375 3 -5.09375 3 -3.59375 C 3 -2.851562 3.273438 -2.269531 3.828125 -1.84375 C 4.390625 -1.425781 5.175781 -1.21875 6.1875 -1.21875 Z M 6.1875 -1.21875 "/></g></g></g><g fill="#000000" fill-opacity="1"><g transform="translate(635.890652, 41.596932)"><g><path d="M 8.796875 -12.6875 C 10.367188 -12.6875 11.625 -12.226562 12.5625 -11.3125 C 13.5 -10.394531 13.96875 -9.0625 13.96875 -7.3125 L 13.96875 0 L 12.265625 0 L 12.265625 -7.140625 C 12.265625 -8.453125 11.9375 -9.445312 11.28125 -10.125 C 10.625 -10.8125 9.691406 -11.15625 8.484375 -11.15625 C 7.117188 -11.15625 6.039062 -10.753906 5.25 -9.953125 C 4.46875 -9.148438 4.078125 -8.035156 4.078125 -6.609375 L 4.078125 0 L 2.375 0 L 2.375 -12.59375 L 4 -12.59375 L 4 -10.28125 C 4.457031 -11.039062 5.097656 -11.628906 5.921875 -12.046875 C 6.742188 -12.472656 7.703125 -12.6875 8.796875 -12.6875 Z M 8.796875 -12.6875 "/></g></g></g><g fill="#000000" fill-opacity="1"><g transform="translate(652.109464, 41.596932)"><g><path d="M 8.796875 -12.6875 C 10.367188 -12.6875 11.625 -12.226562 12.5625 -11.3125 C 13.5 -10.394531 13.96875 -9.0625 13.96875 -7.3125 L 13.96875 0 L 12.265625 0 L 12.265625 -7.140625 C 12.265625 -8.453125 11.9375 -9.445312 11.28125 -10.125 C 10.625 -10.8125 9.691406 -11.15625 8.484375 -11.15625 C 7.117188 -11.15625 6.039062 -10.753906 5.25 -9.953125 C 4.46875 -9.148438 4.078125 -8.035156 4.078125 -6.609375 L 4.078125 0 L 2.375 0 L 2.375 -12.59375 L 4 -12.59375 L 4 -10.28125 C 4.457031 -11.039062 5.097656 -11.628906 5.921875 -12.046875 C 6.742188 -12.472656 7.703125 -12.6875 8.796875 -12.6875 Z M 8.796875 -12.6875 "/></g></g></g><g fill="#000000" fill-opacity="1"><g transform="translate(668.376185, 41.596932)"><g><path d="M 13.34375 -5.765625 L 2.796875 -5.765625 C 2.898438 -4.460938 3.40625 -3.40625 4.3125 -2.59375 C 5.21875 -1.789062 6.367188 -1.390625 7.765625 -1.390625 C 8.546875 -1.390625 9.265625 -1.53125 9.921875 -1.8125 C 10.578125 -2.09375 11.144531 -2.503906 11.625 -3.046875 L 12.578125 -1.9375 C 12.015625 -1.269531 11.3125 -0.757812 10.46875 -0.40625 C 9.632812 -0.0507812 8.71875 0.125 7.71875 0.125 C 6.414062 0.125 5.265625 -0.148438 4.265625 -0.703125 C 3.273438 -1.253906 2.5 -2.015625 1.9375 -2.984375 C 1.382812 -3.960938 1.109375 -5.066406 1.109375 -6.296875 C 1.109375 -7.523438 1.375 -8.625 1.90625 -9.59375 C 2.4375 -10.570312 3.171875 -11.332031 4.109375 -11.875 C 5.046875 -12.414062 6.097656 -12.6875 7.265625 -12.6875 C 8.421875 -12.6875 9.460938 -12.414062 10.390625 -11.875 C 11.316406 -11.332031 12.039062 -10.578125 12.5625 -9.609375 C 13.09375 -8.648438 13.359375 -7.546875 13.359375 -6.296875 Z M 7.265625 -11.234375 C 6.046875 -11.234375 5.023438 -10.84375 4.203125 -10.0625 C 3.378906 -9.289062 2.910156 -8.285156 2.796875 -7.046875 L 11.734375 -7.046875 C 11.617188 -8.285156 11.148438 -9.289062 10.328125 -10.0625 C 9.515625 -10.84375 8.492188 -11.234375 7.265625 -11.234375 Z M 7.265625 -11.234375 "/></g></g></g><g fill="#000000" fill-opacity="1"><g transform="translate(682.846137, 41.596932)"><g><path d="M 2.375 -17.765625 L 4.078125 -17.765625 L 4.078125 0 L 2.375 0 Z M 2.375 -17.765625 "/></g></g></g><g transform="matrix(1, 0, 0, 1, 1053, 26)"><g clip-path="url(#c9a60539e1)"><g fill="#000000" fill-opacity="1"><g transform="translate(0.863093, 26.471597)"><g><path d="M 16.78125 -1.765625 L 16.78125 0 L 3.140625 0 L 3.140625 -19.28125 L 16.359375 -19.28125 L 16.359375 -17.515625 L 5.171875 -17.515625 L 5.171875 -10.65625 L 15.15625 -10.65625 L 15.15625 -8.921875 L 5.171875 -8.921875 L 5.171875 -1.765625 Z M 16.78125 -1.765625 "/></g></g></g><g fill="#000000" fill-opacity="1"><g transform="translate(19.068533, 26.471597)"><g><path d="M 15.953125 -14.484375 L 15.953125 5.34375 L 14 5.34375 L 14 -2.734375 C 13.382812 -1.796875 12.601562 -1.082031 11.65625 -0.59375 C 10.71875 -0.101562 9.660156 0.140625 8.484375 0.140625 C 7.109375 0.140625 5.875 -0.164062 4.78125 -0.78125 C 3.6875 -1.394531 2.828125 -2.257812 2.203125 -3.375 C 1.578125 -4.5 1.265625 -5.789062 1.265625 -7.25 C 1.265625 -8.675781 1.578125 -9.945312 2.203125 -11.0625 C 2.828125 -12.1875 3.691406 -13.054688 4.796875 -13.671875 C 5.898438 -14.285156 7.128906 -14.59375 8.484375 -14.59375 C 9.691406 -14.59375 10.773438 -14.335938 11.734375 -13.828125 C 12.703125 -13.316406 13.484375 -12.582031 14.078125 -11.625 L 14.078125 -14.484375 Z M 8.65625 -1.59375 C 9.664062 -1.59375 10.578125 -1.828125 11.390625 -2.296875 C 12.203125 -2.765625 12.84375 -3.429688 13.3125 -4.296875 C 13.78125 -5.160156 14.015625 -6.144531 14.015625 -7.25 C 14.015625 -8.34375 13.78125 -9.316406 13.3125 -10.171875 C 12.84375 -11.023438 12.203125 -11.691406 11.390625 -12.171875 C 10.578125 -12.648438 9.664062 -12.890625 8.65625 -12.890625 C 7.625 -12.890625 6.695312 -12.648438 5.875 -12.171875 C 5.0625 -11.691406 4.421875 -11.023438 3.953125 -10.171875 C 3.484375 -9.316406 3.25 -8.34375 3.25 -7.25 C 3.25 -6.144531 3.484375 -5.160156 3.953125 -4.296875 C 4.421875 -3.429688 5.0625 -2.765625 5.875 -2.296875 C 6.695312 -1.828125 7.625 -1.59375 8.65625 -1.59375 Z M 8.65625 -1.59375 "/></g></g></g><g fill="#000000" fill-opacity="1"><g transform="translate(37.742205, 26.471597)"><g><path d="M 15.78125 -14.484375 L 15.78125 0 L 13.90625 0 L 13.90625 -2.640625 C 13.394531 -1.765625 12.6875 -1.082031 11.78125 -0.59375 C 10.882812 -0.101562 9.859375 0.140625 8.703125 0.140625 C 6.816406 0.140625 5.328125 -0.382812 4.234375 -1.4375 C 3.140625 -2.5 2.59375 -4.050781 2.59375 -6.09375 L 2.59375 -14.484375 L 4.546875 -14.484375 L 4.546875 -6.28125 C 4.546875 -4.757812 4.921875 -3.601562 5.671875 -2.8125 C 6.421875 -2.019531 7.492188 -1.625 8.890625 -1.625 C 10.421875 -1.625 11.625 -2.085938 12.5 -3.015625 C 13.382812 -3.941406 13.828125 -5.234375 13.828125 -6.890625 L 13.828125 -14.484375 Z M 15.78125 -14.484375 "/></g></g></g><g fill="#000000" fill-opacity="1"><g transform="translate(56.278163, 26.471597)"><g><path d="M 7.796875 -14.59375 C 9.691406 -14.59375 11.140625 -14.117188 12.140625 -13.171875 C 13.148438 -12.234375 13.65625 -10.835938 13.65625 -8.984375 L 13.65625 0 L 11.796875 0 L 11.796875 -2.265625 C 11.347656 -1.503906 10.695312 -0.910156 9.84375 -0.484375 C 8.988281 -0.0664062 7.972656 0.140625 6.796875 0.140625 C 5.179688 0.140625 3.894531 -0.242188 2.9375 -1.015625 C 1.988281 -1.785156 1.515625 -2.804688 1.515625 -4.078125 C 1.515625 -5.304688 1.957031 -6.296875 2.84375 -7.046875 C 3.738281 -7.804688 5.160156 -8.1875 7.109375 -8.1875 L 11.703125 -8.1875 L 11.703125 -9.0625 C 11.703125 -10.3125 11.351562 -11.257812 10.65625 -11.90625 C 9.957031 -12.5625 8.941406 -12.890625 7.609375 -12.890625 C 6.679688 -12.890625 5.796875 -12.738281 4.953125 -12.4375 C 4.109375 -12.132812 3.382812 -11.71875 2.78125 -11.1875 L 1.90625 -12.640625 C 2.632812 -13.265625 3.515625 -13.742188 4.546875 -14.078125 C 5.578125 -14.421875 6.660156 -14.59375 7.796875 -14.59375 Z M 7.109375 -1.40625 C 8.210938 -1.40625 9.15625 -1.65625 9.9375 -2.15625 C 10.726562 -2.664062 11.316406 -3.398438 11.703125 -4.359375 L 11.703125 -6.71875 L 7.15625 -6.71875 C 4.675781 -6.71875 3.4375 -5.851562 3.4375 -4.125 C 3.4375 -3.28125 3.757812 -2.613281 4.40625 -2.125 C 5.050781 -1.644531 5.953125 -1.40625 7.109375 -1.40625 Z M 7.109375 -1.40625 "/></g></g></g><g fill="#000000" fill-opacity="1"><g transform="translate(72.528116, 26.471597)"><g><path d="M 2.734375 -20.4375 L 4.6875 -20.4375 L 4.6875 0 L 2.734375 0 Z M 2.734375 -20.4375 "/></g></g></g><g fill="#000000" fill-opacity="1"><g transform="translate(79.936986, 26.471597)"><g><path d="M 2.734375 -14.484375 L 4.6875 -14.484375 L 4.6875 0 L 2.734375 0 Z M 3.71875 -17.65625 C 3.3125 -17.65625 2.96875 -17.789062 2.6875 -18.0625 C 2.414062 -18.34375 2.28125 -18.675781 2.28125 -19.0625 C 2.28125 -19.425781 2.414062 -19.742188 2.6875 -20.015625 C 2.96875 -20.296875 3.3125 -20.4375 3.71875 -20.4375 C 4.125 -20.4375 4.460938 -20.300781 4.734375 -20.03125 C 5.015625 -19.769531 5.15625 -19.457031 5.15625 -19.09375 C 5.15625 -18.6875 5.015625 -18.34375 4.734375 -18.0625 C 4.460938 -17.789062 4.125 -17.65625 3.71875 -17.65625 Z M 3.71875 -17.65625 "/></g></g></g><g fill="#000000" fill-opacity="1"><g transform="translate(87.345857, 26.471597)"><g><path d="M 12.953125 -1.625 L 12.953125 0 L 1.15625 0 L 1.15625 -1.296875 L 10.28125 -12.84375 L 1.328125 -12.84375 L 1.328125 -14.484375 L 12.78125 -14.484375 L 12.78125 -13.1875 L 3.65625 -1.625 Z M 12.953125 -1.625 "/></g></g></g><g fill="#000000" fill-opacity="1"><g transform="translate(101.172081, 26.471597)"><g><path d="M 15.34375 -6.640625 L 3.21875 -6.640625 C 3.332031 -5.128906 3.910156 -3.910156 4.953125 -2.984375 C 6.003906 -2.054688 7.328125 -1.59375 8.921875 -1.59375 C 9.828125 -1.59375 10.65625 -1.753906 11.40625 -2.078125 C 12.15625 -2.398438 12.804688 -2.875 13.359375 -3.5 L 14.46875 -2.234375 C 13.820312 -1.460938 13.015625 -0.875 12.046875 -0.46875 C 11.085938 -0.0625 10.03125 0.140625 8.875 0.140625 C 7.382812 0.140625 6.066406 -0.175781 4.921875 -0.8125 C 3.773438 -1.445312 2.878906 -2.320312 2.234375 -3.4375 C 1.585938 -4.5625 1.265625 -5.832031 1.265625 -7.25 C 1.265625 -8.65625 1.570312 -9.921875 2.1875 -11.046875 C 2.800781 -12.171875 3.644531 -13.039062 4.71875 -13.65625 C 5.789062 -14.28125 7 -14.59375 8.34375 -14.59375 C 9.6875 -14.59375 10.890625 -14.28125 11.953125 -13.65625 C 13.015625 -13.039062 13.847656 -12.175781 14.453125 -11.0625 C 15.066406 -9.945312 15.375 -8.675781 15.375 -7.25 Z M 8.34375 -12.921875 C 6.945312 -12.921875 5.773438 -12.472656 4.828125 -11.578125 C 3.890625 -10.691406 3.351562 -9.53125 3.21875 -8.09375 L 13.5 -8.09375 C 13.375 -9.53125 12.835938 -10.691406 11.890625 -11.578125 C 10.941406 -12.472656 9.757812 -12.921875 8.34375 -12.921875 Z M 8.34375 -12.921875 "/></g></g></g><g fill="#000000" fill-opacity="1"><g transform="translate(117.807629, 26.471597)"><g><path d="M 15.953125 -20.4375 L 15.953125 0 L 14.078125 0 L 14.078125 -2.859375 C 13.484375 -1.890625 12.703125 -1.144531 11.734375 -0.625 C 10.773438 -0.113281 9.691406 0.140625 8.484375 0.140625 C 7.128906 0.140625 5.898438 -0.171875 4.796875 -0.796875 C 3.691406 -1.421875 2.828125 -2.289062 2.203125 -3.40625 C 1.578125 -4.53125 1.265625 -5.8125 1.265625 -7.25 C 1.265625 -8.675781 1.578125 -9.945312 2.203125 -11.0625 C 2.828125 -12.1875 3.691406 -13.054688 4.796875 -13.671875 C 5.898438 -14.285156 7.128906 -14.59375 8.484375 -14.59375 C 9.660156 -14.59375 10.71875 -14.347656 11.65625 -13.859375 C 12.601562 -13.378906 13.382812 -12.671875 14 -11.734375 L 14 -20.4375 Z M 8.65625 -1.59375 C 9.664062 -1.59375 10.578125 -1.828125 11.390625 -2.296875 C 12.203125 -2.765625 12.84375 -3.429688 13.3125 -4.296875 C 13.78125 -5.160156 14.015625 -6.144531 14.015625 -7.25 C 14.015625 -8.34375 13.78125 -9.320312 13.3125 -10.1875 C 12.84375 -11.050781 12.203125 -11.71875 11.390625 -12.1875 C 10.578125 -12.65625 9.664062 -12.890625 8.65625 -12.890625 C 7.625 -12.890625 6.695312 -12.65625 5.875 -12.1875 C 5.0625 -11.71875 4.421875 -11.050781 3.953125 -10.1875 C 3.484375 -9.320312 3.25 -8.34375 3.25 -7.25 C 3.25 -6.144531 3.484375 -5.160156 3.953125 -4.296875 C 4.421875 -3.429688 5.0625 -2.765625 5.875 -2.296875 C 6.695312 -1.828125 7.625 -1.59375 8.65625 -1.59375 Z M 8.65625 -1.59375 "/></g></g></g><g fill="#000000" fill-opacity="1"><g transform="translate(18.064, 64.839304)"><g><path d="M 11.5625 0.171875 C 9.65625 0.171875 7.925781 -0.253906 6.375 -1.109375 C 4.820312 -1.960938 3.609375 -3.132812 2.734375 -4.625 C 1.867188 -6.113281 1.4375 -7.785156 1.4375 -9.640625 C 1.4375 -11.492188 1.867188 -13.164062 2.734375 -14.65625 C 3.609375 -16.144531 4.820312 -17.316406 6.375 -18.171875 C 7.925781 -19.023438 9.65625 -19.453125 11.5625 -19.453125 C 13.476562 -19.453125 15.203125 -19.023438 16.734375 -18.171875 C 18.265625 -17.328125 19.46875 -16.15625 20.34375 -14.65625 C 21.226562 -13.164062 21.671875 -11.492188 21.671875 -9.640625 C 21.671875 -7.785156 21.226562 -6.109375 20.34375 -4.609375 C 19.46875 -3.117188 18.265625 -1.945312 16.734375 -1.09375 C 15.203125 -0.25 13.476562 0.171875 11.5625 0.171875 Z M 11.5625 -1.65625 C 13.09375 -1.65625 14.472656 -2 15.703125 -2.6875 C 16.929688 -3.375 17.894531 -4.328125 18.59375 -5.546875 C 19.289062 -6.765625 19.640625 -8.128906 19.640625 -9.640625 C 19.640625 -11.148438 19.289062 -12.515625 18.59375 -13.734375 C 17.894531 -14.953125 16.929688 -15.90625 15.703125 -16.59375 C 14.472656 -17.28125 13.09375 -17.625 11.5625 -17.625 C 10.039062 -17.625 8.660156 -17.28125 7.421875 -16.59375 C 6.179688 -15.90625 5.207031 -14.953125 4.5 -13.734375 C 3.789062 -12.515625 3.4375 -11.148438 3.4375 -9.640625 C 3.4375 -8.128906 3.789062 -6.765625 4.5 -5.546875 C 5.207031 -4.328125 6.179688 -3.375 7.421875 -2.6875 C 8.660156 -2 10.039062 -1.65625 11.5625 -1.65625 Z M 11.5625 -1.65625 "/></g></g></g><g fill="#000000" fill-opacity="1"><g transform="translate(41.171977, 64.839304)"><g><path d="M 15.78125 -14.484375 L 15.78125 0 L 13.90625 0 L 13.90625 -2.640625 C 13.394531 -1.765625 12.6875 -1.082031 11.78125 -0.59375 C 10.882812 -0.101562 9.859375 0.140625 8.703125 0.140625 C 6.816406 0.140625 5.328125 -0.382812 4.234375 -1.4375 C 3.140625 -2.5 2.59375 -4.050781 2.59375 -6.09375 L 2.59375 -14.484375 L 4.546875 -14.484375 L 4.546875 -6.28125 C 4.546875 -4.757812 4.921875 -3.601562 5.671875 -2.8125 C 6.421875 -2.019531 7.492188 -1.625 8.890625 -1.625 C 10.421875 -1.625 11.625 -2.085938 12.5 -3.015625 C 13.382812 -3.941406 13.828125 -5.234375 13.828125 -6.890625 L 13.828125 -14.484375 Z M 15.78125 -14.484375 "/></g></g></g><g fill="#000000" fill-opacity="1"><g transform="translate(59.707934, 64.839304)"><g><path d="M 10.359375 -0.875 C 9.992188 -0.550781 9.539062 -0.300781 9 -0.125 C 8.457031 0.0507812 7.890625 0.140625 7.296875 0.140625 C 5.941406 0.140625 4.894531 -0.222656 4.15625 -0.953125 C 3.425781 -1.691406 3.0625 -2.734375 3.0625 -4.078125 L 3.0625 -12.84375 L 0.46875 -12.84375 L 0.46875 -14.484375 L 3.0625 -14.484375 L 3.0625 -17.65625 L 5.015625 -17.65625 L 5.015625 -14.484375 L 9.421875 -14.484375 L 9.421875 -12.84375 L 5.015625 -12.84375 L 5.015625 -4.1875 C 5.015625 -3.320312 5.226562 -2.664062 5.65625 -2.21875 C 6.09375 -1.769531 6.710938 -1.546875 7.515625 -1.546875 C 7.921875 -1.546875 8.3125 -1.609375 8.6875 -1.734375 C 9.0625 -1.859375 9.390625 -2.039062 9.671875 -2.28125 Z M 10.359375 -0.875 "/></g></g></g><g fill="#000000" fill-opacity="1"><g transform="translate(70.890109, 64.839304)"><g><path d="M 10.1875 -14.59375 C 11.550781 -14.59375 12.78125 -14.285156 13.875 -13.671875 C 14.976562 -13.054688 15.84375 -12.1875 16.46875 -11.0625 C 17.09375 -9.945312 17.40625 -8.675781 17.40625 -7.25 C 17.40625 -5.789062 17.09375 -4.5 16.46875 -3.375 C 15.84375 -2.257812 14.984375 -1.394531 13.890625 -0.78125 C 12.804688 -0.164062 11.570312 0.140625 10.1875 0.140625 C 9.007812 0.140625 7.945312 -0.101562 7 -0.59375 C 6.0625 -1.082031 5.289062 -1.796875 4.6875 -2.734375 L 4.6875 5.34375 L 2.734375 5.34375 L 2.734375 -14.484375 L 4.59375 -14.484375 L 4.59375 -11.625 C 5.1875 -12.582031 5.960938 -13.316406 6.921875 -13.828125 C 7.890625 -14.335938 8.976562 -14.59375 10.1875 -14.59375 Z M 10.046875 -1.59375 C 11.054688 -1.59375 11.972656 -1.828125 12.796875 -2.296875 C 13.628906 -2.765625 14.28125 -3.429688 14.75 -4.296875 C 15.21875 -5.160156 15.453125 -6.144531 15.453125 -7.25 C 15.453125 -8.34375 15.21875 -9.316406 14.75 -10.171875 C 14.28125 -11.023438 13.628906 -11.691406 12.796875 -12.171875 C 11.972656 -12.648438 11.054688 -12.890625 10.046875 -12.890625 C 9.023438 -12.890625 8.101562 -12.648438 7.28125 -12.171875 C 6.46875 -11.691406 5.828125 -11.023438 5.359375 -10.171875 C 4.890625 -9.316406 4.65625 -8.34375 4.65625 -7.25 C 4.65625 -6.144531 4.890625 -5.160156 5.359375 -4.296875 C 5.828125 -3.429688 6.46875 -2.765625 7.28125 -2.296875 C 8.101562 -1.828125 9.023438 -1.59375 10.046875 -1.59375 Z M 10.046875 -1.59375 "/></g></g></g><g fill="#000000" fill-opacity="1"><g transform="translate(89.563781, 64.839304)"><g><path d="M 15.78125 -14.484375 L 15.78125 0 L 13.90625 0 L 13.90625 -2.640625 C 13.394531 -1.765625 12.6875 -1.082031 11.78125 -0.59375 C 10.882812 -0.101562 9.859375 0.140625 8.703125 0.140625 C 6.816406 0.140625 5.328125 -0.382812 4.234375 -1.4375 C 3.140625 -2.5 2.59375 -4.050781 2.59375 -6.09375 L 2.59375 -14.484375 L 4.546875 -14.484375 L 4.546875 -6.28125 C 4.546875 -4.757812 4.921875 -3.601562 5.671875 -2.8125 C 6.421875 -2.019531 7.492188 -1.625 8.890625 -1.625 C 10.421875 -1.625 11.625 -2.085938 12.5 -3.015625 C 13.382812 -3.941406 13.828125 -5.234375 13.828125 -6.890625 L 13.828125 -14.484375 Z M 15.78125 -14.484375 "/></g></g></g><g fill="#000000" fill-opacity="1"><g transform="translate(108.099738, 64.839304)"><g><path d="M 10.359375 -0.875 C 9.992188 -0.550781 9.539062 -0.300781 9 -0.125 C 8.457031 0.0507812 7.890625 0.140625 7.296875 0.140625 C 5.941406 0.140625 4.894531 -0.222656 4.15625 -0.953125 C 3.425781 -1.691406 3.0625 -2.734375 3.0625 -4.078125 L 3.0625 -12.84375 L 0.46875 -12.84375 L 0.46875 -14.484375 L 3.0625 -14.484375 L 3.0625 -17.65625 L 5.015625 -17.65625 L 5.015625 -14.484375 L 9.421875 -14.484375 L 9.421875 -12.84375 L 5.015625 -12.84375 L 5.015625 -4.1875 C 5.015625 -3.320312 5.226562 -2.664062 5.65625 -2.21875 C 6.09375 -1.769531 6.710938 -1.546875 7.515625 -1.546875 C 7.921875 -1.546875 8.3125 -1.609375 8.6875 -1.734375 C 9.0625 -1.859375 9.390625 -2.039062 9.671875 -2.28125 Z M 10.359375 -0.875 "/></g></g></g></g></g></svg>