<svg xmlns="http://www.w3.org/2000/svg" xmlns:xlink="http://www.w3.org/1999/xlink" width="1650" zoomAndPan="magnify" viewBox="0 0 1237.5 138.749998" height="185" preserveAspectRatio="xMidYMid meet" version="1.0"><defs><g/><clipPath id="a1c2412880"><path d="M 0.863281 0 L 1236.136719 0 L 1236.136719 138.5 L 0.863281 138.5 Z M 0.863281 0 " clip-rule="nonzero"/></clipPath><clipPath id="8524a51a72"><path d="M 940 59 L 1236.136719 59 L 1236.136719 74 L 940 74 Z M 940 59 " clip-rule="nonzero"/></clipPath><clipPath id="7a1a922d75"><path d="M 853.167969 13.851562 L 976.226562 13.851562 L 976.226562 119.148438 L 853.167969 119.148438 Z M 853.167969 13.851562 " clip-rule="nonzero"/></clipPath><clipPath id="9fa98d2aad"><path d="M 0.167969 0.851562 L 123.226562 0.851562 L 123.226562 106.148438 L 0.167969 106.148438 Z M 0.167969 0.851562 " clip-rule="nonzero"/></clipPath><clipPath id="a3cd22a7ab"><rect x="0" width="124" y="0" height="107"/></clipPath><clipPath id="1ffefab207"><path d="M 853.167969 13.851562 L 975.945312 13.851562 L 975.945312 119.140625 L 853.167969 119.140625 Z M 853.167969 13.851562 " clip-rule="nonzero"/></clipPath><clipPath id="8cf41e45d0"><path d="M 24.917969 17.925781 L 223.910156 17.925781 L 223.910156 115.070312 L 24.917969 115.070312 Z M 24.917969 17.925781 " clip-rule="nonzero"/></clipPath><clipPath id="b167f97cb5"><path d="M 0.917969 0.925781 L 199.910156 0.925781 L 199.910156 98.070312 L 0.917969 98.070312 Z M 0.917969 0.925781 " clip-rule="nonzero"/></clipPath><clipPath id="71b5984b85"><rect x="0" width="200" y="0" height="99"/></clipPath><clipPath id="c8f7c858b1"><path d="M 24.921875 17.925781 L 223.902344 17.925781 L 223.902344 115.0625 L 24.921875 115.0625 Z M 24.921875 17.925781 " clip-rule="nonzero"/></clipPath><clipPath id="62ddb04e29"><path d="M 337.4375 13.851562 L 623.132812 13.851562 L 623.132812 119.148438 L 337.4375 119.148438 Z M 337.4375 13.851562 " clip-rule="nonzero"/></clipPath><clipPath id="3c27fb54cb"><path d="M 0.4375 0.851562 L 286.132812 0.851562 L 286.132812 106.148438 L 0.4375 106.148438 Z M 0.4375 0.851562 " clip-rule="nonzero"/></clipPath><clipPath id="375a121de1"><rect x="0" width="287" y="0" height="107"/></clipPath><clipPath id="038ed762dd"><path d="M 337.445312 13.851562 L 623.121094 13.851562 L 623.121094 119.140625 L 337.445312 119.140625 Z M 337.445312 13.851562 " clip-rule="nonzero"/></clipPath><clipPath id="4a50dc3464"><path d="M 268 0 L 272 0 L 272 138.5 L 268 138.5 Z M 268 0 " clip-rule="nonzero"/></clipPath><clipPath id="3db513824a"><path d="M 736 0 L 740 0 L 740 138.5 L 736 138.5 Z M 736 0 " clip-rule="nonzero"/></clipPath><clipPath id="4fdf6fccb0"><path d="M 674.054688 13.851562 L 802.257812 13.851562 L 802.257812 119.148438 L 674.054688 119.148438 Z M 674.054688 13.851562 " clip-rule="nonzero"/></clipPath><clipPath id="bcd486d2d9"><path d="M 0.0546875 0.851562 L 128.257812 0.851562 L 128.257812 106.148438 L 0.0546875 106.148438 Z M 0.0546875 0.851562 " clip-rule="nonzero"/></clipPath><clipPath id="f51477f977"><rect x="0" width="129" y="0" height="107"/></clipPath><clipPath id="755b0f0cea"><path d="M 674.054688 13.851562 L 802.074219 13.851562 L 802.074219 119.140625 L 674.054688 119.140625 Z M 674.054688 13.851562 " clip-rule="nonzero"/></clipPath></defs><g clip-path="url(#a1c2412880)"><path fill="#ffffff" d="M 0.863281 0 L 1236.136719 0 L 1236.136719 138.5 L 0.863281 138.5 Z M 0.863281 0 " fill-opacity="1" fill-rule="nonzero"/><path stroke-linecap="butt" transform="matrix(0.748651, 0, 0, 0.748651, 0.86332, 0.0000019964)" fill-opacity="1" fill="#ffffff" fill-rule="nonzero" stroke-linejoin="miter" d="M -0.0000524084 -0.00000266667 L 1649.99892 -0.00000266667 L 1649.99892 184.999408 L -0.0000524084 184.999408 Z M -0.0000524084 -0.00000266667 " stroke="#151b23" stroke-width="8" stroke-opacity="1" stroke-miterlimit="4"/></g><g clip-path="url(#8524a51a72)"><path stroke-linecap="butt" transform="matrix(0.748651, -0.000000000000000093, 0.000000000000000093, 0.748651, 947.704444, 59.012157)" fill="none" stroke-linejoin="miter" d="M -0.00176161 10.001779 L 385.26932 10.001779 " stroke="#20365a" stroke-width="20" stroke-opacity="1" stroke-miterlimit="4"/></g><g clip-path="url(#7a1a922d75)"><g transform="matrix(1, 0, 0, 1, 853, 13)"><g clip-path="url(#a3cd22a7ab)"><g clip-path="url(#9fa98d2aad)"><path fill="#eceff4" d="M 0.167969 0.851562 L 123.152344 0.851562 L 123.152344 106.148438 L 0.167969 106.148438 Z M 0.167969 0.851562 " fill-opacity="1" fill-rule="nonzero"/></g></g></g></g><g clip-path="url(#1ffefab207)"><path stroke-linecap="butt" transform="matrix(0.748651, 0, 0, 0.748651, 853.16678, 13.850046)" fill="none" stroke-linejoin="miter" d="M 0.00158837 0.00202546 L 164.359706 0.00202546 L 164.359706 140.640397 L 0.00158837 140.640397 Z M 0.00158837 0.00202546 " stroke="#d8dee9" stroke-width="10" stroke-opacity="1" stroke-miterlimit="4"/></g><g fill="#20365a" fill-opacity="1"><g transform="translate(884.107123, 75.239431)"><g><path d="M 19.453125 -19.5625 L 10.796875 0 L 8.75 0 L 0.078125 -19.5625 L 2.3125 -19.5625 L 9.8125 -2.578125 L 17.359375 -19.5625 Z M 19.453125 -19.5625 "/></g></g></g><g fill="#20365a" fill-opacity="1"><g transform="translate(903.613312, 75.239431)"><g><path d="M 16.96875 -9.78125 L 18.953125 -9.78125 L 18.953125 -2.3125 C 18.035156 -1.519531 16.953125 -0.90625 15.703125 -0.46875 C 14.460938 -0.0390625 13.148438 0.171875 11.765625 0.171875 C 9.804688 0.171875 8.046875 -0.253906 6.484375 -1.109375 C 4.921875 -1.972656 3.691406 -3.160156 2.796875 -4.671875 C 1.898438 -6.191406 1.453125 -7.894531 1.453125 -9.78125 C 1.453125 -11.664062 1.898438 -13.363281 2.796875 -14.875 C 3.691406 -16.394531 4.921875 -17.582031 6.484375 -18.4375 C 8.046875 -19.300781 9.816406 -19.734375 11.796875 -19.734375 C 13.285156 -19.734375 14.65625 -19.492188 15.90625 -19.015625 C 17.15625 -18.546875 18.207031 -17.84375 19.0625 -16.90625 L 17.78125 -15.59375 C 16.226562 -17.125 14.257812 -17.890625 11.875 -17.890625 C 10.289062 -17.890625 8.859375 -17.539062 7.578125 -16.84375 C 6.304688 -16.144531 5.304688 -15.175781 4.578125 -13.9375 C 3.859375 -12.695312 3.5 -11.3125 3.5 -9.78125 C 3.5 -8.25 3.859375 -6.867188 4.578125 -5.640625 C 5.304688 -4.410156 6.300781 -3.441406 7.5625 -2.734375 C 8.832031 -2.023438 10.265625 -1.671875 11.859375 -1.671875 C 13.867188 -1.671875 15.570312 -2.175781 16.96875 -3.1875 Z M 16.96875 -9.78125 "/></g></g></g><g fill="#20365a" fill-opacity="1"><g transform="translate(925.21544, 75.239431)"><g><path d="M 15.453125 -5.234375 L 4.5625 -5.234375 L 2.203125 0 L 0.0625 0 L 9 -19.5625 L 11.046875 -19.5625 L 19.984375 0 L 17.8125 0 Z M 14.703125 -6.90625 L 10 -17.421875 L 5.3125 -6.90625 Z M 14.703125 -6.90625 "/></g></g></g><g clip-path="url(#8cf41e45d0)"><g transform="matrix(1, 0, 0, 1, 24, 17)"><g clip-path="url(#71b5984b85)"><g clip-path="url(#b167f97cb5)"><path fill="#eceff4" d="M 0.917969 0.925781 L 199.757812 0.925781 L 199.757812 98.070312 L 0.917969 98.070312 Z M 0.917969 0.925781 " fill-opacity="1" fill-rule="nonzero"/></g></g></g></g><g clip-path="url(#c8f7c858b1)"><path fill="#d8dee9" d="M 39.894531 14.183594 L 51.125 14.183594 L 51.125 21.671875 L 39.894531 21.671875 Z M 54.867188 14.183594 L 66.097656 14.183594 L 66.097656 21.671875 L 54.867188 21.671875 Z M 69.839844 14.183594 L 81.070312 14.183594 L 81.070312 21.671875 L 69.839844 21.671875 Z M 84.8125 14.183594 L 96.042969 14.183594 L 96.042969 21.671875 L 84.8125 21.671875 Z M 99.785156 14.183594 L 111.015625 14.183594 L 111.015625 21.671875 L 99.785156 21.671875 Z M 114.757812 14.183594 L 125.988281 14.183594 L 125.988281 21.671875 L 114.757812 21.671875 Z M 129.730469 14.183594 L 140.960938 14.183594 L 140.960938 21.671875 L 129.730469 21.671875 Z M 144.703125 14.183594 L 155.933594 14.183594 L 155.933594 21.671875 L 144.703125 21.671875 Z M 159.679688 14.183594 L 170.90625 14.183594 L 170.90625 21.671875 L 159.679688 21.671875 Z M 174.652344 14.183594 L 185.878906 14.183594 L 185.878906 21.671875 L 174.652344 21.671875 Z M 189.625 14.183594 L 200.855469 14.183594 L 200.855469 21.671875 L 189.625 21.671875 Z M 204.597656 14.183594 L 215.828125 14.183594 L 215.828125 21.671875 L 204.597656 21.671875 Z M 219.570312 14.183594 L 227.644531 14.183594 L 227.644531 24.824219 L 220.160156 24.824219 L 220.160156 17.925781 L 223.902344 17.925781 L 223.902344 21.671875 L 219.570312 21.671875 Z M 227.644531 28.566406 L 227.644531 39.796875 L 220.160156 39.796875 L 220.160156 28.566406 Z M 227.644531 43.539062 L 227.644531 54.769531 L 220.160156 54.769531 L 220.160156 43.539062 Z M 227.644531 58.515625 L 227.644531 69.742188 L 220.160156 69.742188 L 220.160156 58.515625 Z M 227.644531 73.488281 L 227.644531 84.714844 L 220.160156 84.714844 L 220.160156 73.488281 Z M 227.644531 88.460938 L 227.644531 99.691406 L 220.160156 99.691406 L 220.160156 88.460938 Z M 227.644531 103.433594 L 227.644531 114.664062 L 220.160156 114.664062 L 220.160156 103.433594 Z M 220.5625 118.808594 L 209.332031 118.808594 L 209.332031 111.320312 L 220.5625 111.320312 Z M 205.585938 118.808594 L 194.359375 118.808594 L 194.359375 111.320312 L 205.585938 111.320312 Z M 190.613281 118.808594 L 179.386719 118.808594 L 179.386719 111.320312 L 190.613281 111.320312 Z M 175.640625 118.808594 L 164.410156 118.808594 L 164.410156 111.320312 L 175.640625 111.320312 Z M 160.667969 118.808594 L 149.4375 118.808594 L 149.4375 111.320312 L 160.667969 111.320312 Z M 145.695312 118.808594 L 134.464844 118.808594 L 134.464844 111.320312 L 145.695312 111.320312 Z M 130.722656 118.808594 L 119.492188 118.808594 L 119.492188 111.320312 L 130.722656 111.320312 Z M 115.75 118.808594 L 104.519531 118.808594 L 104.519531 111.320312 L 115.75 111.320312 Z M 100.777344 118.808594 L 89.546875 118.808594 L 89.546875 111.320312 L 100.777344 111.320312 Z M 85.804688 118.808594 L 74.574219 118.808594 L 74.574219 111.320312 L 85.804688 111.320312 Z M 70.832031 118.808594 L 59.601562 118.808594 L 59.601562 111.320312 L 70.832031 111.320312 Z M 55.859375 118.808594 L 44.628906 118.808594 L 44.628906 111.320312 L 55.859375 111.320312 Z M 40.882812 118.808594 L 29.65625 118.808594 L 29.65625 111.320312 L 40.882812 111.320312 Z M 25.910156 118.808594 L 21.175781 118.808594 L 21.175781 104.824219 L 28.664062 104.824219 L 28.664062 115.0625 L 24.921875 115.0625 L 24.921875 111.320312 L 25.910156 111.320312 Z M 21.175781 101.082031 L 21.175781 89.851562 L 28.664062 89.851562 L 28.664062 101.082031 Z M 21.175781 86.109375 L 21.175781 74.878906 L 28.664062 74.878906 L 28.664062 86.109375 Z M 21.175781 71.136719 L 21.175781 59.90625 L 28.664062 59.90625 L 28.664062 71.136719 Z M 21.175781 56.164062 L 21.175781 44.933594 L 28.664062 44.933594 L 28.664062 56.164062 Z M 21.175781 41.191406 L 21.175781 29.960938 L 28.664062 29.960938 L 28.664062 41.191406 Z M 21.175781 26.21875 L 21.175781 14.183594 L 36.152344 14.183594 L 36.152344 21.671875 L 24.921875 21.671875 L 24.921875 17.925781 L 28.664062 17.925781 L 28.664062 26.21875 Z M 21.175781 26.21875 " fill-opacity="1" fill-rule="nonzero"/></g><g fill="#000000" fill-opacity="1"><g transform="translate(62.150634, 62.346867)"><g><path d="M 8.578125 0.171875 C 7.128906 0.171875 5.738281 -0.0625 4.40625 -0.53125 C 3.070312 -1 2.039062 -1.613281 1.3125 -2.375 L 2.125 -3.96875 C 2.832031 -3.257812 3.769531 -2.6875 4.9375 -2.25 C 6.113281 -1.8125 7.328125 -1.59375 8.578125 -1.59375 C 10.328125 -1.59375 11.640625 -1.910156 12.515625 -2.546875 C 13.398438 -3.191406 13.84375 -4.03125 13.84375 -5.0625 C 13.84375 -5.84375 13.601562 -6.460938 13.125 -6.921875 C 12.644531 -7.390625 12.0625 -7.75 11.375 -8 C 10.6875 -8.257812 9.726562 -8.535156 8.5 -8.828125 C 7.03125 -9.203125 5.851562 -9.5625 4.96875 -9.90625 C 4.09375 -10.25 3.34375 -10.773438 2.71875 -11.484375 C 2.09375 -12.191406 1.78125 -13.15625 1.78125 -14.375 C 1.78125 -15.351562 2.039062 -16.25 2.5625 -17.0625 C 3.09375 -17.875 3.894531 -18.519531 4.96875 -19 C 6.050781 -19.488281 7.394531 -19.734375 9 -19.734375 C 10.113281 -19.734375 11.207031 -19.578125 12.28125 -19.265625 C 13.351562 -18.960938 14.28125 -18.539062 15.0625 -18 L 14.375 -16.359375 C 13.550781 -16.890625 12.671875 -17.289062 11.734375 -17.5625 C 10.804688 -17.832031 9.894531 -17.96875 9 -17.96875 C 7.28125 -17.96875 5.988281 -17.632812 5.125 -16.96875 C 4.257812 -16.3125 3.828125 -15.460938 3.828125 -14.421875 C 3.828125 -13.640625 4.0625 -13.007812 4.53125 -12.53125 C 5.007812 -12.0625 5.609375 -11.695312 6.328125 -11.4375 C 7.046875 -11.1875 8.007812 -10.914062 9.21875 -10.625 C 10.65625 -10.269531 11.816406 -9.921875 12.703125 -9.578125 C 13.585938 -9.234375 14.335938 -8.707031 14.953125 -8 C 15.566406 -7.300781 15.875 -6.359375 15.875 -5.171875 C 15.875 -4.179688 15.609375 -3.28125 15.078125 -2.46875 C 14.546875 -1.664062 13.726562 -1.023438 12.625 -0.546875 C 11.53125 -0.0664062 10.179688 0.171875 8.578125 0.171875 Z M 8.578125 0.171875 "/></g></g></g><g fill="#000000" fill-opacity="1"><g transform="translate(79.337313, 62.346867)"><g><path d="M 10.515625 -0.890625 C 10.140625 -0.554688 9.675781 -0.300781 9.125 -0.125 C 8.570312 0.0507812 8 0.140625 7.40625 0.140625 C 6.03125 0.140625 4.96875 -0.226562 4.21875 -0.96875 C 3.476562 -1.71875 3.109375 -2.773438 3.109375 -4.140625 L 3.109375 -13.03125 L 0.46875 -13.03125 L 0.46875 -14.703125 L 3.109375 -14.703125 L 3.109375 -17.921875 L 5.09375 -17.921875 L 5.09375 -14.703125 L 9.5625 -14.703125 L 9.5625 -13.03125 L 5.09375 -13.03125 L 5.09375 -4.25 C 5.09375 -3.375 5.3125 -2.707031 5.75 -2.25 C 6.1875 -1.789062 6.8125 -1.5625 7.625 -1.5625 C 8.039062 -1.5625 8.4375 -1.625 8.8125 -1.75 C 9.195312 -1.882812 9.53125 -2.070312 9.8125 -2.3125 Z M 10.515625 -0.890625 "/></g></g></g><g fill="#000000" fill-opacity="1"><g transform="translate(90.683324, 62.346867)"><g><path d="M 2.765625 -14.703125 L 4.75 -14.703125 L 4.75 0 L 2.765625 0 Z M 3.765625 -17.921875 C 3.359375 -17.921875 3.015625 -18.054688 2.734375 -18.328125 C 2.453125 -18.609375 2.3125 -18.945312 2.3125 -19.34375 C 2.3125 -19.71875 2.453125 -20.039062 2.734375 -20.3125 C 3.015625 -20.59375 3.359375 -20.734375 3.765625 -20.734375 C 4.179688 -20.734375 4.523438 -20.597656 4.796875 -20.328125 C 5.078125 -20.066406 5.21875 -19.75 5.21875 -19.375 C 5.21875 -18.957031 5.078125 -18.609375 4.796875 -18.328125 C 4.523438 -18.054688 4.179688 -17.921875 3.765625 -17.921875 Z M 3.765625 -17.921875 "/></g></g></g><g fill="#000000" fill-opacity="1"><g transform="translate(98.200747, 62.346867)"><g><path d="M 21.109375 -14.8125 C 22.953125 -14.8125 24.398438 -14.28125 25.453125 -13.21875 C 26.503906 -12.15625 27.03125 -10.59375 27.03125 -8.53125 L 27.03125 0 L 25.046875 0 L 25.046875 -8.328125 C 25.046875 -9.859375 24.675781 -11.023438 23.9375 -11.828125 C 23.207031 -12.628906 22.171875 -13.03125 20.828125 -13.03125 C 19.296875 -13.03125 18.09375 -12.554688 17.21875 -11.609375 C 16.34375 -10.671875 15.90625 -9.375 15.90625 -7.71875 L 15.90625 0 L 13.921875 0 L 13.921875 -8.328125 C 13.921875 -9.859375 13.550781 -11.023438 12.8125 -11.828125 C 12.082031 -12.628906 11.035156 -13.03125 9.671875 -13.03125 C 8.160156 -13.03125 6.960938 -12.554688 6.078125 -11.609375 C 5.191406 -10.671875 4.75 -9.375 4.75 -7.71875 L 4.75 0 L 2.765625 0 L 2.765625 -14.703125 L 4.671875 -14.703125 L 4.671875 -12.015625 C 5.191406 -12.910156 5.914062 -13.597656 6.84375 -14.078125 C 7.78125 -14.566406 8.851562 -14.8125 10.0625 -14.8125 C 11.289062 -14.8125 12.359375 -14.550781 13.265625 -14.03125 C 14.171875 -13.507812 14.847656 -12.738281 15.296875 -11.71875 C 15.828125 -12.6875 16.597656 -13.441406 17.609375 -13.984375 C 18.628906 -14.535156 19.796875 -14.8125 21.109375 -14.8125 Z M 21.109375 -14.8125 "/></g></g></g><g fill="#000000" fill-opacity="1"><g transform="translate(127.851273, 62.346867)"><g><path d="M 16.015625 -14.703125 L 16.015625 0 L 14.109375 0 L 14.109375 -2.6875 C 13.585938 -1.789062 12.867188 -1.09375 11.953125 -0.59375 C 11.046875 -0.101562 10.003906 0.140625 8.828125 0.140625 C 6.910156 0.140625 5.394531 -0.394531 4.28125 -1.46875 C 3.175781 -2.539062 2.625 -4.109375 2.625 -6.171875 L 2.625 -14.703125 L 4.609375 -14.703125 L 4.609375 -6.375 C 4.609375 -4.820312 4.988281 -3.644531 5.75 -2.84375 C 6.519531 -2.050781 7.613281 -1.65625 9.03125 -1.65625 C 10.570312 -1.65625 11.789062 -2.125 12.6875 -3.0625 C 13.582031 -4 14.03125 -5.304688 14.03125 -6.984375 L 14.03125 -14.703125 Z M 16.015625 -14.703125 "/></g></g></g><g fill="#000000" fill-opacity="1"><g transform="translate(146.658811, 62.346867)"><g><path d="M 2.765625 -20.734375 L 4.75 -20.734375 L 4.75 0 L 2.765625 0 Z M 2.765625 -20.734375 "/></g></g></g><g fill="#000000" fill-opacity="1"><g transform="translate(154.176233, 62.346867)"><g><path d="M 16.015625 -14.703125 L 16.015625 0 L 14.109375 0 L 14.109375 -2.6875 C 13.585938 -1.789062 12.867188 -1.09375 11.953125 -0.59375 C 11.046875 -0.101562 10.003906 0.140625 8.828125 0.140625 C 6.910156 0.140625 5.394531 -0.394531 4.28125 -1.46875 C 3.175781 -2.539062 2.625 -4.109375 2.625 -6.171875 L 2.625 -14.703125 L 4.609375 -14.703125 L 4.609375 -6.375 C 4.609375 -4.820312 4.988281 -3.644531 5.75 -2.84375 C 6.519531 -2.050781 7.613281 -1.65625 9.03125 -1.65625 C 10.570312 -1.65625 11.789062 -2.125 12.6875 -3.0625 C 13.582031 -4 14.03125 -5.304688 14.03125 -6.984375 L 14.03125 -14.703125 Z M 16.015625 -14.703125 "/></g></g></g><g fill="#000000" fill-opacity="1"><g transform="translate(172.983771, 62.346867)"><g><path d="M 6.703125 0.140625 C 5.515625 0.140625 4.375 -0.03125 3.28125 -0.375 C 2.195312 -0.71875 1.347656 -1.148438 0.734375 -1.671875 L 1.625 -3.25 C 2.238281 -2.757812 3.007812 -2.359375 3.9375 -2.046875 C 4.875 -1.742188 5.84375 -1.59375 6.84375 -1.59375 C 8.1875 -1.59375 9.179688 -1.800781 9.828125 -2.21875 C 10.472656 -2.632812 10.796875 -3.226562 10.796875 -4 C 10.796875 -4.539062 10.617188 -4.960938 10.265625 -5.265625 C 9.910156 -5.578125 9.460938 -5.8125 8.921875 -5.96875 C 8.378906 -6.125 7.660156 -6.273438 6.765625 -6.421875 C 5.566406 -6.648438 4.601562 -6.878906 3.875 -7.109375 C 3.15625 -7.347656 2.539062 -7.742188 2.03125 -8.296875 C 1.519531 -8.859375 1.265625 -9.632812 1.265625 -10.625 C 1.265625 -11.851562 1.773438 -12.859375 2.796875 -13.640625 C 3.816406 -14.421875 5.242188 -14.8125 7.078125 -14.8125 C 8.023438 -14.8125 8.972656 -14.6875 9.921875 -14.4375 C 10.867188 -14.1875 11.648438 -13.859375 12.265625 -13.453125 L 11.40625 -11.859375 C 10.195312 -12.691406 8.753906 -13.109375 7.078125 -13.109375 C 5.804688 -13.109375 4.847656 -12.882812 4.203125 -12.4375 C 3.566406 -11.988281 3.25 -11.398438 3.25 -10.671875 C 3.25 -10.117188 3.425781 -9.671875 3.78125 -9.328125 C 4.144531 -8.992188 4.597656 -8.75 5.140625 -8.59375 C 5.679688 -8.4375 6.425781 -8.273438 7.375 -8.109375 C 8.550781 -7.878906 9.492188 -7.648438 10.203125 -7.421875 C 10.910156 -7.203125 11.515625 -6.820312 12.015625 -6.28125 C 12.523438 -5.75 12.78125 -5.003906 12.78125 -4.046875 C 12.78125 -2.765625 12.242188 -1.742188 11.171875 -0.984375 C 10.097656 -0.234375 8.609375 0.140625 6.703125 0.140625 Z M 6.703125 0.140625 "/></g></g></g><g fill="#000000" fill-opacity="1"><g transform="translate(37.959848, 90.795606)"><g><path d="M 3.953125 3.484375 C 3.285156 2.378906 2.769531 1.113281 2.40625 -0.3125 C 2.050781 -1.75 1.875 -3.285156 1.875 -4.921875 C 1.875 -6.566406 2.050781 -8.109375 2.40625 -9.546875 C 2.769531 -10.992188 3.285156 -12.253906 3.953125 -13.328125 L 5.171875 -13.328125 C 4.460938 -12.117188 3.941406 -10.816406 3.609375 -9.421875 C 3.285156 -8.035156 3.125 -6.535156 3.125 -4.921875 C 3.125 -3.304688 3.285156 -1.800781 3.609375 -0.40625 C 3.941406 0.976562 4.460938 2.273438 5.171875 3.484375 Z M 3.953125 3.484375 "/></g></g></g><g fill="#000000" fill-opacity="1"><g transform="translate(43.871182, 90.795606)"><g><path d="M 6.75 -12.578125 C 8.351562 -12.578125 9.609375 -12.191406 10.515625 -11.421875 C 11.429688 -10.660156 11.890625 -9.609375 11.890625 -8.265625 C 11.890625 -6.921875 11.429688 -5.867188 10.515625 -5.109375 C 9.609375 -4.347656 8.351562 -3.96875 6.75 -3.96875 L 3.375 -3.96875 L 3.375 0 L 2.046875 0 L 2.046875 -12.578125 Z M 6.71875 -5.140625 C 7.96875 -5.140625 8.921875 -5.410156 9.578125 -5.953125 C 10.234375 -6.503906 10.5625 -7.273438 10.5625 -8.265625 C 10.5625 -9.285156 10.234375 -10.066406 9.578125 -10.609375 C 8.921875 -11.148438 7.96875 -11.421875 6.71875 -11.421875 L 3.375 -11.421875 L 3.375 -5.140625 Z M 6.71875 -5.140625 "/></g></g></g><g fill="#000000" fill-opacity="1"><g transform="translate(55.963354, 90.795606)"><g><path d="M 9.9375 -3.359375 L 2.921875 -3.359375 L 1.421875 0 L 0.03125 0 L 5.78125 -12.578125 L 7.09375 -12.578125 L 12.84375 0 L 11.453125 0 Z M 9.453125 -4.4375 L 6.4375 -11.1875 L 3.40625 -4.4375 Z M 9.453125 -4.4375 "/></g></g></g><g fill="#000000" fill-opacity="1"><g transform="translate(68.846101, 90.795606)"><g><path d="M 15.109375 -12.578125 L 15.109375 0 L 13.828125 0 L 13.828125 -10.0625 L 8.890625 -1.59375 L 8.265625 -1.59375 L 3.328125 -10.015625 L 3.328125 0 L 2.046875 0 L 2.046875 -12.578125 L 3.140625 -12.578125 L 8.609375 -3.25 L 14.015625 -12.578125 Z M 15.109375 -12.578125 "/></g></g></g><g fill="#000000" fill-opacity="1"><g transform="translate(86.005135, 90.795606)"><g><path d="M 11.625 -3.3125 L 9.109375 -3.3125 L 9.109375 0 L 7.8125 0 L 7.8125 -3.3125 L 0.71875 -3.3125 L 0.71875 -4.234375 L 7.390625 -12.578125 L 8.828125 -12.578125 L 2.390625 -4.453125 L 7.859375 -4.453125 L 7.859375 -7.359375 L 9.109375 -7.359375 L 9.109375 -4.453125 L 11.625 -4.453125 Z M 11.625 -3.3125 "/></g></g></g><g fill="#000000" fill-opacity="1"><g transform="translate(97.8817, 90.795606)"><g/></g></g><g fill="#000000" fill-opacity="1"><g transform="translate(102.589202, 90.795606)"><g><path d="M 9.328125 -12.6875 C 10.929688 -12.6875 12.363281 -12.351562 13.625 -11.6875 C 14.894531 -11.019531 15.878906 -10.082031 16.578125 -8.875 C 17.285156 -7.675781 17.640625 -6.304688 17.640625 -4.765625 C 17.640625 -3.242188 17.375 -2.050781 16.84375 -1.1875 C 16.320312 -0.332031 15.59375 0.09375 14.65625 0.09375 C 14.070312 0.09375 13.597656 -0.078125 13.234375 -0.421875 C 12.867188 -0.773438 12.664062 -1.257812 12.625 -1.875 C 12.269531 -1.25 11.78125 -0.765625 11.15625 -0.421875 C 10.53125 -0.078125 9.820312 0.09375 9.03125 0.09375 C 8.195312 0.09375 7.441406 -0.101562 6.765625 -0.5 C 6.085938 -0.90625 5.550781 -1.460938 5.15625 -2.171875 C 4.769531 -2.878906 4.578125 -3.675781 4.578125 -4.5625 C 4.578125 -5.445312 4.769531 -6.238281 5.15625 -6.9375 C 5.550781 -7.644531 6.085938 -8.195312 6.765625 -8.59375 C 7.441406 -8.988281 8.195312 -9.1875 9.03125 -9.1875 C 9.800781 -9.1875 10.492188 -9.019531 11.109375 -8.6875 C 11.722656 -8.351562 12.21875 -7.890625 12.59375 -7.296875 L 12.59375 -9.109375 L 13.765625 -9.109375 L 13.765625 -2.296875 C 13.765625 -1.816406 13.863281 -1.46875 14.0625 -1.25 C 14.269531 -1.039062 14.539062 -0.9375 14.875 -0.9375 C 15.4375 -0.9375 15.878906 -1.269531 16.203125 -1.9375 C 16.535156 -2.613281 16.703125 -3.550781 16.703125 -4.75 C 16.703125 -6.132812 16.390625 -7.359375 15.765625 -8.421875 C 15.148438 -9.484375 14.28125 -10.304688 13.15625 -10.890625 C 12.039062 -11.472656 10.765625 -11.765625 9.328125 -11.765625 C 7.878906 -11.765625 6.59375 -11.460938 5.46875 -10.859375 C 4.351562 -10.253906 3.484375 -9.40625 2.859375 -8.3125 C 2.234375 -7.21875 1.921875 -5.96875 1.921875 -4.5625 C 1.921875 -3.164062 2.226562 -1.914062 2.84375 -0.8125 C 3.457031 0.289062 4.316406 1.144531 5.421875 1.75 C 6.535156 2.363281 7.8125 2.671875 9.25 2.671875 C 9.8125 2.671875 10.398438 2.601562 11.015625 2.46875 C 11.640625 2.34375 12.203125 2.148438 12.703125 1.890625 L 13.015625 2.765625 C 12.492188 3.023438 11.894531 3.226562 11.21875 3.375 C 10.539062 3.519531 9.882812 3.59375 9.25 3.59375 C 7.625 3.59375 6.179688 3.242188 4.921875 2.546875 C 3.660156 1.859375 2.679688 0.894531 1.984375 -0.34375 C 1.285156 -1.582031 0.9375 -2.988281 0.9375 -4.5625 C 0.9375 -6.144531 1.285156 -7.550781 1.984375 -8.78125 C 2.691406 -10.007812 3.679688 -10.96875 4.953125 -11.65625 C 6.234375 -12.34375 7.691406 -12.6875 9.328125 -12.6875 Z M 9.203125 -0.953125 C 9.847656 -0.953125 10.425781 -1.097656 10.9375 -1.390625 C 11.457031 -1.691406 11.863281 -2.113281 12.15625 -2.65625 C 12.457031 -3.207031 12.609375 -3.84375 12.609375 -4.5625 C 12.609375 -5.269531 12.457031 -5.894531 12.15625 -6.4375 C 11.863281 -6.988281 11.457031 -7.410156 10.9375 -7.703125 C 10.425781 -7.992188 9.847656 -8.140625 9.203125 -8.140625 C 8.546875 -8.140625 7.953125 -7.988281 7.421875 -7.6875 C 6.898438 -7.382812 6.492188 -6.960938 6.203125 -6.421875 C 5.910156 -5.890625 5.765625 -5.269531 5.765625 -4.5625 C 5.765625 -3.851562 5.910156 -3.226562 6.203125 -2.6875 C 6.492188 -2.144531 6.898438 -1.71875 7.421875 -1.40625 C 7.953125 -1.101562 8.546875 -0.953125 9.203125 -0.953125 Z M 9.203125 -0.953125 "/></g></g></g><g fill="#000000" fill-opacity="1"><g transform="translate(121.149707, 90.795606)"><g/></g></g><g fill="#000000" fill-opacity="1"><g transform="translate(125.857209, 90.795606)"><g><path d="M 9.515625 -1.15625 L 9.515625 0 L 0.703125 0 L 0.703125 -0.921875 L 5.921875 -6.03125 C 6.585938 -6.675781 7.035156 -7.234375 7.265625 -7.703125 C 7.503906 -8.179688 7.625 -8.660156 7.625 -9.140625 C 7.625 -9.890625 7.367188 -10.46875 6.859375 -10.875 C 6.347656 -11.289062 5.617188 -11.5 4.671875 -11.5 C 3.203125 -11.5 2.054688 -11.03125 1.234375 -10.09375 L 0.328125 -10.890625 C 0.816406 -11.460938 1.441406 -11.90625 2.203125 -12.21875 C 2.960938 -12.53125 3.820312 -12.6875 4.78125 -12.6875 C 6.0625 -12.6875 7.078125 -12.382812 7.828125 -11.78125 C 8.578125 -11.175781 8.953125 -10.347656 8.953125 -9.296875 C 8.953125 -8.640625 8.804688 -8.007812 8.515625 -7.40625 C 8.222656 -6.8125 7.675781 -6.128906 6.875 -5.359375 L 2.609375 -1.15625 Z M 9.515625 -1.15625 "/></g></g></g><g fill="#000000" fill-opacity="1"><g transform="translate(136.062788, 90.795606)"><g><path d="M 9.515625 -1.15625 L 9.515625 0 L 0.703125 0 L 0.703125 -0.921875 L 5.921875 -6.03125 C 6.585938 -6.675781 7.035156 -7.234375 7.265625 -7.703125 C 7.503906 -8.179688 7.625 -8.660156 7.625 -9.140625 C 7.625 -9.890625 7.367188 -10.46875 6.859375 -10.875 C 6.347656 -11.289062 5.617188 -11.5 4.671875 -11.5 C 3.203125 -11.5 2.054688 -11.03125 1.234375 -10.09375 L 0.328125 -10.890625 C 0.816406 -11.460938 1.441406 -11.90625 2.203125 -12.21875 C 2.960938 -12.53125 3.820312 -12.6875 4.78125 -12.6875 C 6.0625 -12.6875 7.078125 -12.382812 7.828125 -11.78125 C 8.578125 -11.175781 8.953125 -10.347656 8.953125 -9.296875 C 8.953125 -8.640625 8.804688 -8.007812 8.515625 -7.40625 C 8.222656 -6.8125 7.675781 -6.128906 6.875 -5.359375 L 2.609375 -1.15625 Z M 9.515625 -1.15625 "/></g></g></g><g fill="#000000" fill-opacity="1"><g transform="translate(145.855111, 90.795606)"><g><path d="M 11.625 -3.3125 L 9.109375 -3.3125 L 9.109375 0 L 7.8125 0 L 7.8125 -3.3125 L 0.71875 -3.3125 L 0.71875 -4.234375 L 7.390625 -12.578125 L 8.828125 -12.578125 L 2.390625 -4.453125 L 7.859375 -4.453125 L 7.859375 -7.359375 L 9.109375 -7.359375 L 9.109375 -4.453125 L 11.625 -4.453125 Z M 11.625 -3.3125 "/></g></g></g><g fill="#000000" fill-opacity="1"><g transform="translate(157.911356, 90.795606)"><g><path d="M 10.90625 -6.28125 L 12.1875 -6.28125 L 12.1875 -1.484375 C 11.59375 -0.972656 10.894531 -0.578125 10.09375 -0.296875 C 9.289062 -0.0234375 8.445312 0.109375 7.5625 0.109375 C 6.300781 0.109375 5.164062 -0.164062 4.15625 -0.71875 C 3.15625 -1.269531 2.367188 -2.03125 1.796875 -3 C 1.222656 -3.976562 0.9375 -5.070312 0.9375 -6.28125 C 0.9375 -7.5 1.222656 -8.59375 1.796875 -9.5625 C 2.367188 -10.539062 3.15625 -11.304688 4.15625 -11.859375 C 5.164062 -12.410156 6.304688 -12.6875 7.578125 -12.6875 C 8.535156 -12.6875 9.414062 -12.53125 10.21875 -12.21875 C 11.019531 -11.914062 11.695312 -11.46875 12.25 -10.875 L 11.421875 -10.03125 C 10.429688 -11.007812 9.171875 -11.5 7.640625 -11.5 C 6.617188 -11.5 5.695312 -11.273438 4.875 -10.828125 C 4.050781 -10.378906 3.40625 -9.753906 2.9375 -8.953125 C 2.476562 -8.160156 2.25 -7.269531 2.25 -6.28125 C 2.25 -5.300781 2.476562 -4.414062 2.9375 -3.625 C 3.40625 -2.832031 4.046875 -2.207031 4.859375 -1.75 C 5.679688 -1.300781 6.601562 -1.078125 7.625 -1.078125 C 8.914062 -1.078125 10.007812 -1.398438 10.90625 -2.046875 Z M 10.90625 -6.28125 "/></g></g></g><g fill="#000000" fill-opacity="1"><g transform="translate(171.800286, 90.795606)"><g><path d="M 6.640625 -9.515625 C 7.535156 -9.515625 8.34375 -9.3125 9.0625 -8.90625 C 9.78125 -8.507812 10.34375 -7.945312 10.75 -7.21875 C 11.15625 -6.488281 11.359375 -5.65625 11.359375 -4.71875 C 11.359375 -3.789062 11.15625 -2.957031 10.75 -2.21875 C 10.34375 -1.488281 9.78125 -0.921875 9.0625 -0.515625 C 8.34375 -0.109375 7.535156 0.09375 6.640625 0.09375 C 5.859375 0.09375 5.148438 -0.0703125 4.515625 -0.40625 C 3.890625 -0.75 3.382812 -1.238281 3 -1.875 L 3 0 L 1.78125 0 L 1.78125 -13.328125 L 3.046875 -13.328125 L 3.046875 -7.65625 C 3.441406 -8.269531 3.945312 -8.734375 4.5625 -9.046875 C 5.1875 -9.359375 5.878906 -9.515625 6.640625 -9.515625 Z M 6.5625 -1.046875 C 7.21875 -1.046875 7.8125 -1.195312 8.34375 -1.5 C 8.882812 -1.800781 9.304688 -2.234375 9.609375 -2.796875 C 9.921875 -3.359375 10.078125 -4 10.078125 -4.71875 C 10.078125 -5.4375 9.921875 -6.078125 9.609375 -6.640625 C 9.304688 -7.210938 8.882812 -7.648438 8.34375 -7.953125 C 7.8125 -8.253906 7.21875 -8.40625 6.5625 -8.40625 C 5.882812 -8.40625 5.28125 -8.253906 4.75 -7.953125 C 4.21875 -7.648438 3.796875 -7.210938 3.484375 -6.640625 C 3.179688 -6.078125 3.03125 -5.4375 3.03125 -4.71875 C 3.03125 -4 3.179688 -3.359375 3.484375 -2.796875 C 3.796875 -2.234375 4.21875 -1.800781 4.75 -1.5 C 5.28125 -1.195312 5.882812 -1.046875 6.5625 -1.046875 Z M 6.5625 -1.046875 "/></g></g></g><g fill="#000000" fill-opacity="1"><g transform="translate(183.982303, 90.795606)"><g><path d="M 6.640625 -9.515625 C 7.535156 -9.515625 8.34375 -9.3125 9.0625 -8.90625 C 9.78125 -8.507812 10.34375 -7.945312 10.75 -7.21875 C 11.15625 -6.488281 11.359375 -5.65625 11.359375 -4.71875 C 11.359375 -3.78125 11.15625 -2.941406 10.75 -2.203125 C 10.34375 -1.472656 9.78125 -0.90625 9.0625 -0.5 C 8.351562 -0.101562 7.546875 0.09375 6.640625 0.09375 C 5.878906 0.09375 5.1875 -0.0625 4.5625 -0.375 C 3.945312 -0.695312 3.441406 -1.164062 3.046875 -1.78125 L 3.046875 3.484375 L 1.78125 3.484375 L 1.78125 -9.453125 L 3 -9.453125 L 3 -7.578125 C 3.382812 -8.203125 3.890625 -8.679688 4.515625 -9.015625 C 5.148438 -9.347656 5.859375 -9.515625 6.640625 -9.515625 Z M 6.5625 -1.046875 C 7.21875 -1.046875 7.8125 -1.195312 8.34375 -1.5 C 8.882812 -1.800781 9.304688 -2.234375 9.609375 -2.796875 C 9.921875 -3.359375 10.078125 -4 10.078125 -4.71875 C 10.078125 -5.4375 9.921875 -6.070312 9.609375 -6.625 C 9.304688 -7.1875 8.882812 -7.625 8.34375 -7.9375 C 7.8125 -8.25 7.21875 -8.40625 6.5625 -8.40625 C 5.882812 -8.40625 5.28125 -8.25 4.75 -7.9375 C 4.21875 -7.625 3.796875 -7.1875 3.484375 -6.625 C 3.179688 -6.070312 3.03125 -5.4375 3.03125 -4.71875 C 3.03125 -4 3.179688 -3.359375 3.484375 -2.796875 C 3.796875 -2.234375 4.21875 -1.800781 4.75 -1.5 C 5.28125 -1.195312 5.882812 -1.046875 6.5625 -1.046875 Z M 6.5625 -1.046875 "/></g></g></g><g fill="#000000" fill-opacity="1"><g transform="translate(196.164321, 90.795606)"><g><path d="M 4.3125 0.09375 C 3.539062 0.09375 2.804688 -0.015625 2.109375 -0.234375 C 1.410156 -0.460938 0.863281 -0.742188 0.46875 -1.078125 L 1.046875 -2.078125 C 1.441406 -1.765625 1.9375 -1.507812 2.53125 -1.3125 C 3.132812 -1.125 3.757812 -1.03125 4.40625 -1.03125 C 5.269531 -1.03125 5.90625 -1.160156 6.3125 -1.421875 C 6.726562 -1.691406 6.9375 -2.070312 6.9375 -2.5625 C 6.9375 -2.914062 6.820312 -3.191406 6.59375 -3.390625 C 6.363281 -3.585938 6.070312 -3.734375 5.71875 -3.828125 C 5.375 -3.929688 4.914062 -4.03125 4.34375 -4.125 C 3.582031 -4.269531 2.96875 -4.414062 2.5 -4.5625 C 2.03125 -4.71875 1.628906 -4.972656 1.296875 -5.328125 C 0.972656 -5.691406 0.8125 -6.191406 0.8125 -6.828125 C 0.8125 -7.617188 1.140625 -8.265625 1.796875 -8.765625 C 2.453125 -9.265625 3.367188 -9.515625 4.546875 -9.515625 C 5.160156 -9.515625 5.769531 -9.429688 6.375 -9.265625 C 6.988281 -9.109375 7.492188 -8.898438 7.890625 -8.640625 L 7.328125 -7.625 C 6.546875 -8.15625 5.617188 -8.421875 4.546875 -8.421875 C 3.734375 -8.421875 3.117188 -8.273438 2.703125 -7.984375 C 2.285156 -7.703125 2.078125 -7.328125 2.078125 -6.859375 C 2.078125 -6.503906 2.191406 -6.21875 2.421875 -6 C 2.660156 -5.78125 2.953125 -5.617188 3.296875 -5.515625 C 3.648438 -5.421875 4.132812 -5.316406 4.75 -5.203125 C 5.5 -5.066406 6.097656 -4.925781 6.546875 -4.78125 C 7.003906 -4.632812 7.394531 -4.382812 7.71875 -4.03125 C 8.050781 -3.6875 8.21875 -3.210938 8.21875 -2.609375 C 8.21875 -1.773438 7.867188 -1.113281 7.171875 -0.625 C 6.484375 -0.144531 5.53125 0.09375 4.3125 0.09375 Z M 4.3125 0.09375 "/></g></g></g><g fill="#000000" fill-opacity="1"><g transform="translate(204.950461, 90.795606)"><g><path d="M 0.71875 3.484375 C 1.425781 2.273438 1.945312 0.976562 2.28125 -0.40625 C 2.613281 -1.789062 2.78125 -3.296875 2.78125 -4.921875 C 2.78125 -6.546875 2.613281 -8.050781 2.28125 -9.4375 C 1.945312 -10.820312 1.425781 -12.117188 0.71875 -13.328125 L 1.9375 -13.328125 C 2.613281 -12.253906 3.132812 -10.992188 3.5 -9.546875 C 3.863281 -8.109375 4.046875 -6.566406 4.046875 -4.921875 C 4.046875 -3.285156 3.863281 -1.75 3.5 -0.3125 C 3.144531 1.125 2.625 2.390625 1.9375 3.484375 Z M 0.71875 3.484375 "/></g></g></g><path stroke-linecap="butt" transform="matrix(0.748651, -0.000000000000000186, 0.000000000000000186, 0.748651, 223.910765, 63.504064)" fill="none" stroke-linejoin="miter" d="M -0.000813745 4.001779 L 147.639736 4.001779 " stroke="#20365a" stroke-width="8" stroke-opacity="1" stroke-miterlimit="4"/><path stroke-linecap="round" transform="matrix(0.748651, -0.000000000000000186, 0.000000000000000186, 0.748651, 223.910765, 63.504064)" fill="none" stroke-linejoin="round" d="M 131.642212 -7.998972 L 147.639736 4.001779 L 131.642212 16.002531 " stroke="#20365a" stroke-width="8" stroke-opacity="1" stroke-miterlimit="4"/><g fill="#ff5757" fill-opacity="1"><g transform="translate(279.798354, 26.910709)"><g><path d="M 5.46875 -13.609375 L 0.09375 -13.609375 L 0.09375 -16.765625 L 14.703125 -16.765625 L 14.703125 -13.609375 L 9.34375 -13.609375 L 9.34375 0 L 5.46875 0 Z M 5.46875 -13.609375 "/></g></g></g><g fill="#ff5757" fill-opacity="1"><g transform="translate(293.885002, 26.910709)"><g><path d="M 12.546875 0 L 8.5 -5.828125 L 4.53125 0 L 0.078125 0 L 6.28125 -8.53125 L 0.390625 -16.765625 L 4.796875 -16.765625 L 8.640625 -11.328125 L 12.4375 -16.765625 L 16.625 -16.765625 L 10.78125 -8.671875 L 17.03125 0 Z M 12.546875 0 "/></g></g></g><g clip-path="url(#62ddb04e29)"><g transform="matrix(1, 0, 0, 1, 337, 13)"><g clip-path="url(#375a121de1)"><g clip-path="url(#3c27fb54cb)"><path fill="#eceff4" d="M 0.4375 0.851562 L 286.300781 0.851562 L 286.300781 106.148438 L 0.4375 106.148438 Z M 0.4375 0.851562 " fill-opacity="1" fill-rule="nonzero"/></g></g></g></g><g clip-path="url(#038ed762dd)"><path stroke-linecap="butt" transform="matrix(0.748651, 0, 0, 0.748651, 337.436939, 13.850046)" fill="none" stroke-linejoin="miter" d="M 0.0111848 0.00202546 L 381.598557 0.00202546 L 381.598557 140.640397 L 0.0111848 140.640397 Z M 0.0111848 0.00202546 " stroke="#d8dee9" stroke-width="10" stroke-opacity="1" stroke-miterlimit="4"/></g><g fill="#20365a" fill-opacity="1"><g transform="translate(361.393772, 60.665699)"><g><path d="M 5.25 -17.78125 L 5.25 -10.09375 L 15.375 -10.09375 L 15.375 -8.296875 L 5.25 -8.296875 L 5.25 0 L 3.1875 0 L 3.1875 -19.5625 L 16.609375 -19.5625 L 16.609375 -17.78125 Z M 5.25 -17.78125 "/></g></g></g><g fill="#20365a" fill-opacity="1"><g transform="translate(379.083486, 60.665699)"><g><path d="M 3.1875 -19.5625 L 5.25 -19.5625 L 5.25 0 L 3.1875 0 Z M 3.1875 -19.5625 "/></g></g></g><g fill="#20365a" fill-opacity="1"><g transform="translate(387.523128, 60.665699)"><g><path d="M 16.546875 0 L 12.078125 -6.296875 C 11.578125 -6.234375 11.054688 -6.203125 10.515625 -6.203125 L 5.25 -6.203125 L 5.25 0 L 3.1875 0 L 3.1875 -19.5625 L 10.515625 -19.5625 C 13.003906 -19.5625 14.957031 -18.960938 16.375 -17.765625 C 17.789062 -16.578125 18.5 -14.941406 18.5 -12.859375 C 18.5 -11.328125 18.113281 -10.035156 17.34375 -8.984375 C 16.570312 -7.929688 15.46875 -7.171875 14.03125 -6.703125 L 18.8125 0 Z M 10.453125 -7.96875 C 12.390625 -7.96875 13.867188 -8.394531 14.890625 -9.25 C 15.921875 -10.101562 16.4375 -11.304688 16.4375 -12.859375 C 16.4375 -14.441406 15.921875 -15.65625 14.890625 -16.5 C 13.867188 -17.351562 12.390625 -17.78125 10.453125 -17.78125 L 5.25 -17.78125 L 5.25 -7.96875 Z M 10.453125 -7.96875 "/></g></g></g><g fill="#20365a" fill-opacity="1"><g transform="translate(407.727967, 60.665699)"><g/></g></g><g fill="#20365a" fill-opacity="1"><g transform="translate(415.049773, 60.665699)"><g><path d="M 5.25 -17.78125 L 5.25 -10.09375 L 15.375 -10.09375 L 15.375 -8.296875 L 5.25 -8.296875 L 5.25 0 L 3.1875 0 L 3.1875 -19.5625 L 16.609375 -19.5625 L 16.609375 -17.78125 Z M 5.25 -17.78125 "/></g></g></g><g fill="#20365a" fill-opacity="1"><g transform="translate(432.739487, 60.665699)"><g><path d="M 2.765625 -14.703125 L 4.75 -14.703125 L 4.75 0 L 2.765625 0 Z M 3.765625 -17.921875 C 3.359375 -17.921875 3.015625 -18.054688 2.734375 -18.328125 C 2.453125 -18.609375 2.3125 -18.945312 2.3125 -19.34375 C 2.3125 -19.71875 2.453125 -20.039062 2.734375 -20.3125 C 3.015625 -20.59375 3.359375 -20.734375 3.765625 -20.734375 C 4.179688 -20.734375 4.523438 -20.597656 4.796875 -20.328125 C 5.078125 -20.066406 5.21875 -19.75 5.21875 -19.375 C 5.21875 -18.957031 5.078125 -18.609375 4.796875 -18.328125 C 4.523438 -18.054688 4.179688 -17.921875 3.765625 -17.921875 Z M 3.765625 -17.921875 "/></g></g></g><g fill="#20365a" fill-opacity="1"><g transform="translate(440.256909, 60.665699)"><g><path d="M 2.765625 -20.734375 L 4.75 -20.734375 L 4.75 0 L 2.765625 0 Z M 2.765625 -20.734375 "/></g></g></g><g fill="#20365a" fill-opacity="1"><g transform="translate(447.774331, 60.665699)"><g><path d="M 10.515625 -0.890625 C 10.140625 -0.554688 9.675781 -0.300781 9.125 -0.125 C 8.570312 0.0507812 8 0.140625 7.40625 0.140625 C 6.03125 0.140625 4.96875 -0.226562 4.21875 -0.96875 C 3.476562 -1.71875 3.109375 -2.773438 3.109375 -4.140625 L 3.109375 -13.03125 L 0.46875 -13.03125 L 0.46875 -14.703125 L 3.109375 -14.703125 L 3.109375 -17.921875 L 5.09375 -17.921875 L 5.09375 -14.703125 L 9.5625 -14.703125 L 9.5625 -13.03125 L 5.09375 -13.03125 L 5.09375 -4.25 C 5.09375 -3.375 5.3125 -2.707031 5.75 -2.25 C 6.1875 -1.789062 6.8125 -1.5625 7.625 -1.5625 C 8.039062 -1.5625 8.4375 -1.625 8.8125 -1.75 C 9.195312 -1.882812 9.53125 -2.070312 9.8125 -2.3125 Z M 10.515625 -0.890625 "/></g></g></g><g fill="#20365a" fill-opacity="1"><g transform="translate(459.120342, 60.665699)"><g><path d="M 15.5625 -6.734375 L 3.265625 -6.734375 C 3.378906 -5.203125 3.96875 -3.96875 5.03125 -3.03125 C 6.09375 -2.09375 7.4375 -1.625 9.0625 -1.625 C 9.96875 -1.625 10.800781 -1.785156 11.5625 -2.109375 C 12.332031 -2.429688 13 -2.910156 13.5625 -3.546875 L 14.671875 -2.265625 C 14.023438 -1.484375 13.210938 -0.882812 12.234375 -0.46875 C 11.253906 -0.0625 10.175781 0.140625 9 0.140625 C 7.488281 0.140625 6.148438 -0.175781 4.984375 -0.8125 C 3.828125 -1.457031 2.921875 -2.347656 2.265625 -3.484375 C 1.609375 -4.628906 1.28125 -5.921875 1.28125 -7.359375 C 1.28125 -8.785156 1.59375 -10.066406 2.21875 -11.203125 C 2.84375 -12.347656 3.695312 -13.234375 4.78125 -13.859375 C 5.875 -14.492188 7.101562 -14.8125 8.46875 -14.8125 C 9.832031 -14.8125 11.050781 -14.492188 12.125 -13.859375 C 13.207031 -13.234375 14.054688 -12.351562 14.671875 -11.21875 C 15.285156 -10.09375 15.59375 -8.804688 15.59375 -7.359375 Z M 8.46875 -13.109375 C 7.050781 -13.109375 5.863281 -12.65625 4.90625 -11.75 C 3.945312 -10.851562 3.398438 -9.675781 3.265625 -8.21875 L 13.703125 -8.21875 C 13.566406 -9.675781 13.019531 -10.851562 12.0625 -11.75 C 11.101562 -12.65625 9.90625 -13.109375 8.46875 -13.109375 Z M 8.46875 -13.109375 "/></g></g></g><g fill="#20365a" fill-opacity="1"><g transform="translate(475.999627, 60.665699)"><g><path d="M 4.671875 -11.828125 C 5.128906 -12.816406 5.820312 -13.5625 6.75 -14.0625 C 7.675781 -14.5625 8.816406 -14.8125 10.171875 -14.8125 L 10.171875 -12.890625 L 9.703125 -12.921875 C 8.148438 -12.921875 6.9375 -12.441406 6.0625 -11.484375 C 5.1875 -10.535156 4.75 -9.203125 4.75 -7.484375 L 4.75 0 L 2.765625 0 L 2.765625 -14.703125 L 4.671875 -14.703125 Z M 4.671875 -11.828125 "/></g></g></g><g fill="#20365a" fill-opacity="1"><g transform="translate(487.205906, 60.665699)"><g/></g></g><g fill="#20365a" fill-opacity="1"><g transform="translate(494.527712, 60.665699)"><g><path d="M 6.15625 5.421875 C 5.101562 3.703125 4.296875 1.734375 3.734375 -0.484375 C 3.179688 -2.710938 2.90625 -5.101562 2.90625 -7.65625 C 2.90625 -10.207031 3.179688 -12.601562 3.734375 -14.84375 C 4.296875 -17.09375 5.101562 -19.054688 6.15625 -20.734375 L 8.046875 -20.734375 C 6.953125 -18.859375 6.144531 -16.835938 5.625 -14.671875 C 5.113281 -12.515625 4.859375 -10.175781 4.859375 -7.65625 C 4.859375 -5.144531 5.113281 -2.804688 5.625 -0.640625 C 6.144531 1.515625 6.953125 3.535156 8.046875 5.421875 Z M 6.15625 5.421875 "/></g></g></g><g fill="#20365a" fill-opacity="1"><g transform="translate(503.721888, 60.665699)"><g><path d="M 18.078125 -5.140625 L 14.171875 -5.140625 L 14.171875 0 L 12.15625 0 L 12.15625 -5.140625 L 1.125 -5.140625 L 1.125 -6.59375 L 11.484375 -19.5625 L 13.71875 -19.5625 L 3.71875 -6.9375 L 12.21875 -6.9375 L 12.21875 -11.453125 L 14.171875 -11.453125 L 14.171875 -6.9375 L 18.078125 -6.9375 Z M 18.078125 -5.140625 "/></g></g></g><g fill="#20365a" fill-opacity="1"><g transform="translate(522.194078, 60.665699)"><g/></g></g><g fill="#20365a" fill-opacity="1"><g transform="translate(529.515884, 60.665699)"><g><path d="M 10.515625 -0.890625 C 10.140625 -0.554688 9.675781 -0.300781 9.125 -0.125 C 8.570312 0.0507812 8 0.140625 7.40625 0.140625 C 6.03125 0.140625 4.96875 -0.226562 4.21875 -0.96875 C 3.476562 -1.71875 3.109375 -2.773438 3.109375 -4.140625 L 3.109375 -13.03125 L 0.46875 -13.03125 L 0.46875 -14.703125 L 3.109375 -14.703125 L 3.109375 -17.921875 L 5.09375 -17.921875 L 5.09375 -14.703125 L 9.5625 -14.703125 L 9.5625 -13.03125 L 5.09375 -13.03125 L 5.09375 -4.25 C 5.09375 -3.375 5.3125 -2.707031 5.75 -2.25 C 6.1875 -1.789062 6.8125 -1.5625 7.625 -1.5625 C 8.039062 -1.5625 8.4375 -1.625 8.8125 -1.75 C 9.195312 -1.882812 9.53125 -2.070312 9.8125 -2.3125 Z M 10.515625 -0.890625 "/></g></g></g><g fill="#20365a" fill-opacity="1"><g transform="translate(540.861895, 60.665699)"><g><path d="M 7.90625 -14.8125 C 9.832031 -14.8125 11.304688 -14.332031 12.328125 -13.375 C 13.347656 -12.414062 13.859375 -10.992188 13.859375 -9.109375 L 13.859375 0 L 11.96875 0 L 11.96875 -2.296875 C 11.519531 -1.523438 10.859375 -0.925781 9.984375 -0.5 C 9.117188 -0.0703125 8.09375 0.140625 6.90625 0.140625 C 5.257812 0.140625 3.953125 -0.25 2.984375 -1.03125 C 2.015625 -1.8125 1.53125 -2.847656 1.53125 -4.140625 C 1.53125 -5.390625 1.984375 -6.394531 2.890625 -7.15625 C 3.796875 -7.914062 5.238281 -8.296875 7.21875 -8.296875 L 11.875 -8.296875 L 11.875 -9.203125 C 11.875 -10.460938 11.519531 -11.421875 10.8125 -12.078125 C 10.101562 -12.742188 9.070312 -13.078125 7.71875 -13.078125 C 6.78125 -13.078125 5.882812 -12.921875 5.03125 -12.609375 C 4.175781 -12.304688 3.441406 -11.882812 2.828125 -11.34375 L 1.921875 -12.828125 C 2.671875 -13.460938 3.566406 -13.953125 4.609375 -14.296875 C 5.648438 -14.640625 6.75 -14.8125 7.90625 -14.8125 Z M 7.21875 -1.421875 C 8.332031 -1.421875 9.289062 -1.675781 10.09375 -2.1875 C 10.894531 -2.707031 11.488281 -3.453125 11.875 -4.421875 L 11.875 -6.828125 L 7.265625 -6.828125 C 4.753906 -6.828125 3.5 -5.945312 3.5 -4.1875 C 3.5 -3.332031 3.820312 -2.65625 4.46875 -2.15625 C 5.125 -1.664062 6.039062 -1.421875 7.21875 -1.421875 Z M 7.21875 -1.421875 "/></g></g></g><g fill="#20365a" fill-opacity="1"><g transform="translate(557.349935, 60.665699)"><g><path d="M 10.34375 -14.8125 C 11.71875 -14.8125 12.960938 -14.5 14.078125 -13.875 C 15.203125 -13.25 16.082031 -12.367188 16.71875 -11.234375 C 17.351562 -10.097656 17.671875 -8.804688 17.671875 -7.359375 C 17.671875 -5.878906 17.351562 -4.570312 16.71875 -3.4375 C 16.082031 -2.300781 15.207031 -1.421875 14.09375 -0.796875 C 12.988281 -0.171875 11.738281 0.140625 10.34375 0.140625 C 9.144531 0.140625 8.066406 -0.101562 7.109375 -0.59375 C 6.148438 -1.09375 5.363281 -1.816406 4.75 -2.765625 L 4.75 5.421875 L 2.765625 5.421875 L 2.765625 -14.703125 L 4.671875 -14.703125 L 4.671875 -11.796875 C 5.265625 -12.765625 6.050781 -13.507812 7.03125 -14.03125 C 8.007812 -14.550781 9.113281 -14.8125 10.34375 -14.8125 Z M 10.203125 -1.625 C 11.222656 -1.625 12.148438 -1.859375 12.984375 -2.328125 C 13.828125 -2.804688 14.488281 -3.484375 14.96875 -4.359375 C 15.445312 -5.234375 15.6875 -6.234375 15.6875 -7.359375 C 15.6875 -8.472656 15.445312 -9.460938 14.96875 -10.328125 C 14.488281 -11.191406 13.828125 -11.863281 12.984375 -12.34375 C 12.148438 -12.832031 11.222656 -13.078125 10.203125 -13.078125 C 9.160156 -13.078125 8.222656 -12.832031 7.390625 -12.34375 C 6.566406 -11.863281 5.914062 -11.191406 5.4375 -10.328125 C 4.957031 -9.460938 4.71875 -8.472656 4.71875 -7.359375 C 4.71875 -6.234375 4.957031 -5.234375 5.4375 -4.359375 C 5.914062 -3.484375 6.566406 -2.804688 7.390625 -2.328125 C 8.222656 -1.859375 9.160156 -1.625 10.203125 -1.625 Z M 10.203125 -1.625 "/></g></g></g><g fill="#20365a" fill-opacity="1"><g transform="translate(576.297195, 60.665699)"><g><path d="M 6.703125 0.140625 C 5.515625 0.140625 4.375 -0.03125 3.28125 -0.375 C 2.195312 -0.71875 1.347656 -1.148438 0.734375 -1.671875 L 1.625 -3.25 C 2.238281 -2.757812 3.007812 -2.359375 3.9375 -2.046875 C 4.875 -1.742188 5.84375 -1.59375 6.84375 -1.59375 C 8.1875 -1.59375 9.179688 -1.800781 9.828125 -2.21875 C 10.472656 -2.632812 10.796875 -3.226562 10.796875 -4 C 10.796875 -4.539062 10.617188 -4.960938 10.265625 -5.265625 C 9.910156 -5.578125 9.460938 -5.8125 8.921875 -5.96875 C 8.378906 -6.125 7.660156 -6.273438 6.765625 -6.421875 C 5.566406 -6.648438 4.601562 -6.878906 3.875 -7.109375 C 3.15625 -7.347656 2.539062 -7.742188 2.03125 -8.296875 C 1.519531 -8.859375 1.265625 -9.632812 1.265625 -10.625 C 1.265625 -11.851562 1.773438 -12.859375 2.796875 -13.640625 C 3.816406 -14.421875 5.242188 -14.8125 7.078125 -14.8125 C 8.023438 -14.8125 8.972656 -14.6875 9.921875 -14.4375 C 10.867188 -14.1875 11.648438 -13.859375 12.265625 -13.453125 L 11.40625 -11.859375 C 10.195312 -12.691406 8.753906 -13.109375 7.078125 -13.109375 C 5.804688 -13.109375 4.847656 -12.882812 4.203125 -12.4375 C 3.566406 -11.988281 3.25 -11.398438 3.25 -10.671875 C 3.25 -10.117188 3.425781 -9.671875 3.78125 -9.328125 C 4.144531 -8.992188 4.597656 -8.75 5.140625 -8.59375 C 5.679688 -8.4375 6.425781 -8.273438 7.375 -8.109375 C 8.550781 -7.878906 9.492188 -7.648438 10.203125 -7.421875 C 10.910156 -7.203125 11.515625 -6.820312 12.015625 -6.28125 C 12.523438 -5.75 12.78125 -5.003906 12.78125 -4.046875 C 12.78125 -2.765625 12.242188 -1.742188 11.171875 -0.984375 C 10.097656 -0.234375 8.609375 0.140625 6.703125 0.140625 Z M 6.703125 0.140625 "/></g></g></g><g fill="#20365a" fill-opacity="1"><g transform="translate(589.962726, 60.665699)"><g><path d="M 1.125 5.421875 C 2.21875 3.535156 3.023438 1.519531 3.546875 -0.625 C 4.066406 -2.78125 4.328125 -5.125 4.328125 -7.65625 C 4.328125 -10.1875 4.066406 -12.53125 3.546875 -14.6875 C 3.023438 -16.84375 2.21875 -18.859375 1.125 -20.734375 L 3.015625 -20.734375 C 4.054688 -19.054688 4.863281 -17.09375 5.4375 -14.84375 C 6.007812 -12.601562 6.296875 -10.207031 6.296875 -7.65625 C 6.296875 -5.101562 6.015625 -2.707031 5.453125 -0.46875 C 4.890625 1.757812 4.078125 3.722656 3.015625 5.421875 Z M 1.125 5.421875 "/></g></g></g><g fill="#20365a" fill-opacity="1"><g transform="translate(436.258876, 92.857694)"><g><path d="M 2.03125 -13.4375 L 2.28125 -15.09375 L 12.984375 -15.09375 L 12.734375 -13.4375 L 8.34375 -13.4375 L 6.203125 0 L 4.28125 0 L 6.421875 -13.4375 Z M 2.03125 -13.4375 "/></g></g></g><g fill="#20365a" fill-opacity="1"><g transform="translate(448.836261, 92.857694)"><g><path d="M 5.078125 -5.953125 L 2.03125 -11.53125 L 4.09375 -11.53125 L 5.953125 -7.859375 C 6.066406 -7.660156 6.144531 -7.488281 6.1875 -7.34375 C 6.21875 -7.269531 6.242188 -7.195312 6.265625 -7.125 L 6.359375 -7.125 C 6.398438 -7.195312 6.445312 -7.269531 6.5 -7.34375 C 6.550781 -7.40625 6.609375 -7.484375 6.671875 -7.578125 C 6.734375 -7.671875 6.8125 -7.765625 6.90625 -7.859375 L 9.875 -11.53125 L 12.125 -11.53125 L 7.296875 -5.890625 L 10.53125 0 L 8.453125 0 L 6.453125 -3.90625 C 6.410156 -4 6.363281 -4.085938 6.3125 -4.171875 C 6.269531 -4.265625 6.234375 -4.359375 6.203125 -4.453125 C 6.160156 -4.546875 6.117188 -4.632812 6.078125 -4.71875 L 6 -4.71875 C 5.9375 -4.625 5.878906 -4.535156 5.828125 -4.453125 C 5.773438 -4.359375 5.71875 -4.265625 5.65625 -4.171875 C 5.59375 -4.078125 5.523438 -3.988281 5.453125 -3.90625 L 2.1875 0 L 0 0 Z M 5.078125 -5.953125 "/></g></g></g><g fill="#20365a" fill-opacity="1"><g transform="translate(461.413646, 92.857694)"><g><path d="M 3.375 -15.125 L 12.34375 -15.125 L 12.09375 -13.4375 L 4.921875 -13.4375 L 4.15625 -8.5625 L 10.78125 -8.5625 L 10.5 -6.875 L 3.921875 -6.875 L 2.828125 0 L 0.984375 0 Z M 3.375 -15.125 "/></g></g></g><g fill="#20365a" fill-opacity="1"><g transform="translate(473.991031, 92.857694)"><g><path d="M 3.375 -15.125 L 12.34375 -15.125 L 12.09375 -13.4375 L 4.921875 -13.4375 L 4.15625 -8.5625 L 10.78125 -8.5625 L 10.5 -6.875 L 3.921875 -6.875 L 2.828125 0 L 0.984375 0 Z M 3.375 -15.125 "/></g></g></g><g fill="#20365a" fill-opacity="1"><g transform="translate(486.568417, 92.857694)"><g><path d="M 3.375 -15.09375 L 12.25 -15.09375 L 11.96875 -13.421875 L 4.953125 -13.421875 L 4.1875 -8.640625 L 10.484375 -8.640625 L 10.21875 -6.921875 L 3.921875 -6.921875 L 3.109375 -1.671875 L 10.125 -1.671875 L 9.859375 0 L 0.984375 0 Z M 3.375 -15.09375 "/></g></g></g><g fill="#20365a" fill-opacity="1"><g transform="translate(499.145802, 92.857694)"><g><path d="M 4.640625 -1.65625 C 4.722656 -2.195312 4.953125 -2.628906 5.328125 -2.953125 C 5.703125 -3.285156 6.160156 -3.453125 6.703125 -3.453125 C 7.253906 -3.453125 7.664062 -3.285156 7.9375 -2.953125 C 8.21875 -2.628906 8.316406 -2.195312 8.234375 -1.65625 C 8.140625 -1.09375 7.898438 -0.640625 7.515625 -0.296875 C 7.128906 0.0351562 6.664062 0.203125 6.125 0.203125 C 5.582031 0.203125 5.171875 0.0351562 4.890625 -0.296875 C 4.617188 -0.640625 4.535156 -1.09375 4.640625 -1.65625 Z M 4.640625 -1.65625 "/></g></g></g><g fill="#20365a" fill-opacity="1"><g transform="translate(511.723187, 92.857694)"><g><path d="M 0.25 0 L 2.078125 -11.53125 L 3.515625 -11.53125 L 3.265625 -9.828125 L 3.390625 -9.828125 C 3.546875 -10.441406 3.816406 -10.914062 4.203125 -11.25 C 4.597656 -11.582031 5.078125 -11.75 5.640625 -11.75 C 6.171875 -11.75 6.585938 -11.578125 6.890625 -11.234375 C 7.203125 -10.898438 7.378906 -10.429688 7.421875 -9.828125 L 7.5 -9.828125 C 7.65625 -10.441406 7.925781 -10.914062 8.3125 -11.25 C 8.707031 -11.582031 9.1875 -11.75 9.75 -11.75 C 10.414062 -11.75 10.90625 -11.484375 11.21875 -10.953125 C 11.539062 -10.421875 11.625 -9.695312 11.46875 -8.78125 L 10.078125 0 L 8.5 0 L 9.875 -8.78125 C 9.957031 -9.269531 9.910156 -9.648438 9.734375 -9.921875 C 9.566406 -10.203125 9.28125 -10.34375 8.875 -10.34375 C 8.476562 -10.34375 8.15625 -10.210938 7.90625 -9.953125 C 7.65625 -9.691406 7.472656 -9.320312 7.359375 -8.84375 L 7.359375 -8.78125 L 5.96875 0 L 4.375 0 L 5.765625 -8.78125 C 5.847656 -9.207031 5.820312 -9.554688 5.6875 -9.828125 C 5.519531 -10.171875 5.210938 -10.34375 4.765625 -10.34375 C 4.273438 -10.34375 3.910156 -10.171875 3.671875 -9.828125 C 3.441406 -9.484375 3.296875 -9.101562 3.234375 -8.6875 L 1.84375 0 Z M 0.25 0 "/></g></g></g><g clip-path="url(#4a50dc3464)"><path fill="#20365a" d="M 271.574219 0 L 271.574219 8.984375 L 268.582031 8.984375 L 268.582031 0 M 271.574219 11.976562 L 271.574219 20.960938 L 268.582031 20.960938 L 268.582031 11.976562 M 271.574219 23.957031 L 271.574219 32.941406 L 268.582031 32.941406 L 268.582031 23.957031 M 271.574219 35.933594 L 271.574219 44.917969 L 268.582031 44.917969 L 268.582031 35.933594 M 271.574219 47.914062 L 271.574219 56.898438 L 268.582031 56.898438 L 268.582031 47.914062 M 271.574219 59.890625 L 271.574219 68.875 L 268.582031 68.875 L 268.582031 59.890625 M 271.574219 71.871094 L 271.574219 80.855469 L 268.582031 80.855469 L 268.582031 71.871094 M 271.574219 83.847656 L 271.574219 92.832031 L 268.582031 92.832031 L 268.582031 83.847656 M 271.574219 95.828125 L 271.574219 104.8125 L 268.582031 104.8125 L 268.582031 95.828125 M 271.574219 107.804688 L 271.574219 116.789062 L 268.582031 116.789062 L 268.582031 107.804688 M 271.574219 119.785156 L 271.574219 128.769531 L 268.582031 128.769531 L 268.582031 119.785156 M 271.574219 131.761719 L 271.574219 138.5 L 268.582031 138.5 L 268.582031 131.761719 " fill-opacity="1" fill-rule="nonzero"/></g><g clip-path="url(#3db513824a)"><path fill="#20365a" d="M 739.652344 0 L 739.652344 8.984375 L 736.660156 8.984375 L 736.660156 0 M 739.652344 11.976562 L 739.652344 20.960938 L 736.660156 20.960938 L 736.660156 11.976562 M 739.652344 23.957031 L 739.652344 32.941406 L 736.660156 32.941406 L 736.660156 23.957031 M 739.652344 35.933594 L 739.652344 44.917969 L 736.660156 44.917969 L 736.660156 35.933594 M 739.652344 47.914062 L 739.652344 56.898438 L 736.660156 56.898438 L 736.660156 47.914062 M 739.652344 59.890625 L 739.652344 68.875 L 736.660156 68.875 L 736.660156 59.890625 M 739.652344 71.871094 L 739.652344 80.855469 L 736.660156 80.855469 L 736.660156 71.871094 M 739.652344 83.847656 L 739.652344 92.832031 L 736.660156 92.832031 L 736.660156 83.847656 M 739.652344 95.828125 L 739.652344 104.8125 L 736.660156 104.8125 L 736.660156 95.828125 M 739.652344 107.804688 L 739.652344 116.789062 L 736.660156 116.789062 L 736.660156 107.804688 M 739.652344 119.785156 L 739.652344 128.769531 L 736.660156 128.769531 L 736.660156 119.785156 M 739.652344 131.761719 L 739.652344 138.5 L 736.660156 138.5 L 736.660156 131.761719 " fill-opacity="1" fill-rule="nonzero"/></g><g clip-path="url(#4fdf6fccb0)"><g transform="matrix(1, 0, 0, 1, 674, 13)"><g clip-path="url(#f51477f977)"><g clip-path="url(#bcd486d2d9)"><path fill="#f4f6fa" d="M 0.0546875 0.851562 L 128.382812 0.851562 L 128.382812 106.148438 L 0.0546875 106.148438 Z M 0.0546875 0.851562 " fill-opacity="1" fill-rule="nonzero"/></g></g></g></g><g clip-path="url(#755b0f0cea)"><path fill="#8e97a6" d="M 689.027344 10.109375 L 700.257812 10.109375 L 700.257812 17.59375 L 689.027344 17.59375 Z M 704 10.109375 L 715.230469 10.109375 L 715.230469 17.59375 L 704 17.59375 Z M 718.972656 10.109375 L 730.203125 10.109375 L 730.203125 17.59375 L 718.972656 17.59375 Z M 733.945312 10.109375 L 745.175781 10.109375 L 745.175781 17.59375 L 733.945312 17.59375 Z M 748.917969 10.109375 L 760.148438 10.109375 L 760.148438 17.59375 L 748.917969 17.59375 Z M 763.890625 10.109375 L 775.121094 10.109375 L 775.121094 17.59375 L 763.890625 17.59375 Z M 778.863281 10.109375 L 790.09375 10.109375 L 790.09375 17.59375 L 778.863281 17.59375 Z M 793.839844 10.109375 L 805.992188 10.109375 L 805.992188 16.671875 L 798.503906 16.671875 L 798.503906 13.851562 L 802.25 13.851562 L 802.25 17.59375 L 793.839844 17.59375 Z M 805.992188 20.414062 L 805.992188 31.644531 L 798.503906 31.644531 L 798.503906 20.414062 Z M 805.992188 35.386719 L 805.992188 46.617188 L 798.503906 46.617188 L 798.503906 35.386719 Z M 805.992188 50.359375 L 805.992188 61.589844 L 798.503906 61.589844 L 798.503906 50.359375 Z M 805.992188 65.332031 L 805.992188 76.5625 L 798.503906 76.5625 L 798.503906 65.332031 Z M 805.992188 80.304688 L 805.992188 91.535156 L 798.503906 91.535156 L 798.503906 80.304688 Z M 805.992188 95.277344 L 805.992188 106.507812 L 798.503906 106.507812 L 798.503906 95.277344 Z M 805.992188 110.25 L 805.992188 122.882812 L 799.90625 122.882812 L 799.90625 115.398438 L 802.25 115.398438 L 802.25 119.140625 L 798.503906 119.140625 L 798.503906 110.25 Z M 796.164062 122.882812 L 784.933594 122.882812 L 784.933594 115.398438 L 796.164062 115.398438 Z M 781.191406 122.882812 L 769.960938 122.882812 L 769.960938 115.398438 L 781.191406 115.398438 Z M 766.21875 122.882812 L 754.988281 122.882812 L 754.988281 115.398438 L 766.21875 115.398438 Z M 751.246094 122.882812 L 740.015625 122.882812 L 740.015625 115.398438 L 751.246094 115.398438 Z M 736.273438 122.882812 L 725.042969 122.882812 L 725.042969 115.398438 L 736.273438 115.398438 Z M 721.300781 122.882812 L 710.070312 122.882812 L 710.070312 115.398438 L 721.300781 115.398438 Z M 706.324219 122.882812 L 695.097656 122.882812 L 695.097656 115.398438 L 706.324219 115.398438 Z M 691.351562 122.882812 L 680.125 122.882812 L 680.125 115.398438 L 691.351562 115.398438 Z M 676.378906 122.882812 L 670.308594 122.882812 L 670.308594 110.234375 L 677.796875 110.234375 L 677.796875 119.140625 L 674.054688 119.140625 L 674.054688 115.398438 L 676.378906 115.398438 Z M 670.308594 106.492188 L 670.308594 95.261719 L 677.796875 95.261719 L 677.796875 106.492188 Z M 670.308594 91.519531 L 670.308594 80.289062 L 677.796875 80.289062 L 677.796875 91.519531 Z M 670.308594 76.546875 L 670.308594 65.316406 L 677.796875 65.316406 L 677.796875 76.546875 Z M 670.308594 61.574219 L 670.308594 50.34375 L 677.796875 50.34375 L 677.796875 61.574219 Z M 670.308594 46.601562 L 670.308594 35.371094 L 677.796875 35.371094 L 677.796875 46.601562 Z M 670.308594 31.628906 L 670.308594 20.398438 L 677.796875 20.398438 L 677.796875 31.628906 Z M 670.308594 16.65625 L 670.308594 10.109375 L 685.285156 10.109375 L 685.285156 17.59375 L 674.054688 17.59375 L 674.054688 13.851562 L 677.796875 13.851562 L 677.796875 16.65625 Z M 670.308594 16.65625 " fill-opacity="1" fill-rule="nonzero"/></g><g fill="#8e97a6" fill-opacity="1"><g transform="translate(706.538169, 75.239431)"><g><path d="M 5.640625 -19.5625 L 13.078125 -19.5625 C 15.015625 -19.5625 16.675781 -19.234375 18.0625 -18.578125 C 19.457031 -17.929688 20.515625 -17.003906 21.234375 -15.796875 C 21.953125 -14.597656 22.3125 -13.195312 22.3125 -11.59375 C 22.3125 -9.320312 21.804688 -7.3125 20.796875 -5.5625 C 19.785156 -3.8125 18.363281 -2.445312 16.53125 -1.46875 C 14.695312 -0.488281 12.566406 0 10.140625 0 L 1.734375 0 Z M 10.203125 -1.78125 C 12.234375 -1.78125 14.007812 -2.195312 15.53125 -3.03125 C 17.050781 -3.863281 18.210938 -5.015625 19.015625 -6.484375 C 19.828125 -7.953125 20.234375 -9.628906 20.234375 -11.515625 C 20.234375 -13.453125 19.609375 -14.976562 18.359375 -16.09375 C 17.117188 -17.21875 15.285156 -17.78125 12.859375 -17.78125 L 7.328125 -17.78125 L 4.140625 -1.78125 Z M 10.203125 -1.78125 "/></g></g></g><g fill="#8e97a6" fill-opacity="1"><g transform="translate(729.621423, 75.239431)"><g><path d="M 15.15625 -5.234375 L 4.21875 -5.234375 L 0.84375 0 L -1.390625 0 L 11.453125 -19.5625 L 13.5 -19.5625 L 18.53125 0 L 16.46875 0 Z M 14.765625 -6.90625 L 12.109375 -17.46875 L 5.28125 -6.90625 Z M 14.765625 -6.90625 "/></g></g></g><g fill="#8e97a6" fill-opacity="1"><g transform="translate(749.658577, 75.239431)"><g><path d="M 10.921875 0.171875 C 9.023438 0.171875 7.382812 -0.164062 6 -0.84375 C 4.625 -1.53125 3.578125 -2.484375 2.859375 -3.703125 C 2.140625 -4.921875 1.78125 -6.34375 1.78125 -7.96875 C 1.78125 -10.125 2.269531 -12.097656 3.25 -13.890625 C 4.226562 -15.679688 5.617188 -17.101562 7.421875 -18.15625 C 9.234375 -19.207031 11.328125 -19.734375 13.703125 -19.734375 C 15.265625 -19.734375 16.648438 -19.484375 17.859375 -18.984375 C 19.066406 -18.492188 20 -17.796875 20.65625 -16.890625 L 19.203125 -15.59375 C 17.953125 -17.125 16.0625 -17.890625 13.53125 -17.890625 C 11.613281 -17.890625 9.914062 -17.445312 8.4375 -16.5625 C 6.96875 -15.675781 5.832031 -14.488281 5.03125 -13 C 4.226562 -11.507812 3.828125 -9.867188 3.828125 -8.078125 C 3.828125 -6.117188 4.457031 -4.5625 5.71875 -3.40625 C 6.976562 -2.25 8.769531 -1.671875 11.09375 -1.671875 C 13.644531 -1.671875 15.710938 -2.445312 17.296875 -4 L 18.5 -2.625 C 17.644531 -1.726562 16.554688 -1.035156 15.234375 -0.546875 C 13.910156 -0.0664062 12.472656 0.171875 10.921875 0.171875 Z M 10.921875 0.171875 "/></g></g></g><g fill="#000000" fill-opacity="1"><g transform="translate(989.93451, 45.589739)"><g><path d="M 10.015625 0.140625 C 8.347656 0.140625 6.847656 -0.222656 5.515625 -0.953125 C 4.179688 -1.691406 3.132812 -2.710938 2.375 -4.015625 C 1.625 -5.316406 1.25 -6.773438 1.25 -8.390625 C 1.25 -9.992188 1.625 -11.445312 2.375 -12.75 C 3.132812 -14.050781 4.1875 -15.066406 5.53125 -15.796875 C 6.875 -16.535156 8.375 -16.90625 10.03125 -16.90625 C 11.28125 -16.90625 12.429688 -16.695312 13.484375 -16.28125 C 14.535156 -15.875 15.429688 -15.269531 16.171875 -14.46875 L 15.046875 -13.34375 C 13.734375 -14.664062 12.078125 -15.328125 10.078125 -15.328125 C 8.753906 -15.328125 7.550781 -15.023438 6.46875 -14.421875 C 5.382812 -13.816406 4.535156 -12.984375 3.921875 -11.921875 C 3.304688 -10.867188 3 -9.691406 3 -8.390625 C 3 -7.078125 3.304688 -5.890625 3.921875 -4.828125 C 4.535156 -3.773438 5.382812 -2.945312 6.46875 -2.34375 C 7.550781 -1.738281 8.753906 -1.4375 10.078125 -1.4375 C 12.097656 -1.4375 13.753906 -2.109375 15.046875 -3.453125 L 16.171875 -2.328125 C 15.429688 -1.523438 14.53125 -0.910156 13.46875 -0.484375 C 12.40625 -0.0664062 11.253906 0.140625 10.015625 0.140625 Z M 10.015625 0.140625 "/></g></g></g><g fill="#000000" fill-opacity="1"><g transform="translate(1007.159504, 45.589739)"><g><path d="M 8.796875 -12.6875 C 10.367188 -12.6875 11.625 -12.226562 12.5625 -11.3125 C 13.5 -10.394531 13.96875 -9.0625 13.96875 -7.3125 L 13.96875 0 L 12.265625 0 L 12.265625 -7.140625 C 12.265625 -8.453125 11.9375 -9.445312 11.28125 -10.125 C 10.625 -10.8125 9.691406 -11.15625 8.484375 -11.15625 C 7.117188 -11.15625 6.039062 -10.753906 5.25 -9.953125 C 4.46875 -9.148438 4.078125 -8.035156 4.078125 -6.609375 L 4.078125 0 L 2.375 0 L 2.375 -17.765625 L 4.078125 -17.765625 L 4.078125 -10.390625 C 4.535156 -11.128906 5.171875 -11.695312 5.984375 -12.09375 C 6.796875 -12.488281 7.734375 -12.6875 8.796875 -12.6875 Z M 8.796875 -12.6875 "/></g></g></g><g fill="#000000" fill-opacity="1"><g transform="translate(1023.378315, 45.589739)"><g><path d="M 6.78125 -12.6875 C 8.425781 -12.6875 9.6875 -12.273438 10.5625 -11.453125 C 11.4375 -10.640625 11.875 -9.425781 11.875 -7.8125 L 11.875 0 L 10.25 0 L 10.25 -1.96875 C 9.863281 -1.3125 9.300781 -0.796875 8.5625 -0.421875 C 7.820312 -0.0546875 6.941406 0.125 5.921875 0.125 C 4.515625 0.125 3.394531 -0.207031 2.5625 -0.875 C 1.726562 -1.550781 1.3125 -2.441406 1.3125 -3.546875 C 1.3125 -4.617188 1.695312 -5.476562 2.46875 -6.125 C 3.25 -6.78125 4.488281 -7.109375 6.1875 -7.109375 L 10.1875 -7.109375 L 10.1875 -7.875 C 10.1875 -8.96875 9.878906 -9.796875 9.265625 -10.359375 C 8.660156 -10.921875 7.773438 -11.203125 6.609375 -11.203125 C 5.804688 -11.203125 5.035156 -11.070312 4.296875 -10.8125 C 3.566406 -10.550781 2.941406 -10.1875 2.421875 -9.71875 L 1.65625 -11 C 2.289062 -11.539062 3.054688 -11.957031 3.953125 -12.25 C 4.847656 -12.539062 5.789062 -12.6875 6.78125 -12.6875 Z M 6.1875 -1.21875 C 7.132812 -1.21875 7.953125 -1.4375 8.640625 -1.875 C 9.328125 -2.3125 9.84375 -2.945312 10.1875 -3.78125 L 10.1875 -5.84375 L 6.234375 -5.84375 C 4.078125 -5.84375 3 -5.09375 3 -3.59375 C 3 -2.851562 3.273438 -2.269531 3.828125 -1.84375 C 4.390625 -1.425781 5.175781 -1.21875 6.1875 -1.21875 Z M 6.1875 -1.21875 "/></g></g></g><g fill="#000000" fill-opacity="1"><g transform="translate(1037.512873, 45.589739)"><g><path d="M 8.796875 -12.6875 C 10.367188 -12.6875 11.625 -12.226562 12.5625 -11.3125 C 13.5 -10.394531 13.96875 -9.0625 13.96875 -7.3125 L 13.96875 0 L 12.265625 0 L 12.265625 -7.140625 C 12.265625 -8.453125 11.9375 -9.445312 11.28125 -10.125 C 10.625 -10.8125 9.691406 -11.15625 8.484375 -11.15625 C 7.117188 -11.15625 6.039062 -10.753906 5.25 -9.953125 C 4.46875 -9.148438 4.078125 -8.035156 4.078125 -6.609375 L 4.078125 0 L 2.375 0 L 2.375 -12.59375 L 4 -12.59375 L 4 -10.28125 C 4.457031 -11.039062 5.097656 -11.628906 5.921875 -12.046875 C 6.742188 -12.472656 7.703125 -12.6875 8.796875 -12.6875 Z M 8.796875 -12.6875 "/></g></g></g><g fill="#000000" fill-opacity="1"><g transform="translate(1053.731684, 45.589739)"><g><path d="M 8.796875 -12.6875 C 10.367188 -12.6875 11.625 -12.226562 12.5625 -11.3125 C 13.5 -10.394531 13.96875 -9.0625 13.96875 -7.3125 L 13.96875 0 L 12.265625 0 L 12.265625 -7.140625 C 12.265625 -8.453125 11.9375 -9.445312 11.28125 -10.125 C 10.625 -10.8125 9.691406 -11.15625 8.484375 -11.15625 C 7.117188 -11.15625 6.039062 -10.753906 5.25 -9.953125 C 4.46875 -9.148438 4.078125 -8.035156 4.078125 -6.609375 L 4.078125 0 L 2.375 0 L 2.375 -12.59375 L 4 -12.59375 L 4 -10.28125 C 4.457031 -11.039062 5.097656 -11.628906 5.921875 -12.046875 C 6.742188 -12.472656 7.703125 -12.6875 8.796875 -12.6875 Z M 8.796875 -12.6875 "/></g></g></g><g fill="#000000" fill-opacity="1"><g transform="translate(1069.998406, 45.589739)"><g><path d="M 13.34375 -5.765625 L 2.796875 -5.765625 C 2.898438 -4.460938 3.40625 -3.40625 4.3125 -2.59375 C 5.21875 -1.789062 6.367188 -1.390625 7.765625 -1.390625 C 8.546875 -1.390625 9.265625 -1.53125 9.921875 -1.8125 C 10.578125 -2.09375 11.144531 -2.503906 11.625 -3.046875 L 12.578125 -1.9375 C 12.015625 -1.269531 11.3125 -0.757812 10.46875 -0.40625 C 9.632812 -0.0507812 8.71875 0.125 7.71875 0.125 C 6.414062 0.125 5.265625 -0.148438 4.265625 -0.703125 C 3.273438 -1.253906 2.5 -2.015625 1.9375 -2.984375 C 1.382812 -3.960938 1.109375 -5.066406 1.109375 -6.296875 C 1.109375 -7.523438 1.375 -8.625 1.90625 -9.59375 C 2.4375 -10.570312 3.171875 -11.332031 4.109375 -11.875 C 5.046875 -12.414062 6.097656 -12.6875 7.265625 -12.6875 C 8.421875 -12.6875 9.460938 -12.414062 10.390625 -11.875 C 11.316406 -11.332031 12.039062 -10.578125 12.5625 -9.609375 C 13.09375 -8.648438 13.359375 -7.546875 13.359375 -6.296875 Z M 7.265625 -11.234375 C 6.046875 -11.234375 5.023438 -10.84375 4.203125 -10.0625 C 3.378906 -9.289062 2.910156 -8.285156 2.796875 -7.046875 L 11.734375 -7.046875 C 11.617188 -8.285156 11.148438 -9.289062 10.328125 -10.0625 C 9.515625 -10.84375 8.492188 -11.234375 7.265625 -11.234375 Z M 7.265625 -11.234375 "/></g></g></g><g fill="#000000" fill-opacity="1"><g transform="translate(1084.468358, 45.589739)"><g><path d="M 2.375 -17.765625 L 4.078125 -17.765625 L 4.078125 0 L 2.375 0 Z M 2.375 -17.765625 "/></g></g></g><path stroke-linecap="butt" transform="matrix(0.748651, 0, 0, 0.748651, 623.132645, 63.504064)" fill="none" stroke-linejoin="miter" d="M 0.000223351 4.001779 L 64.016406 4.001779 " stroke="#20365a" stroke-width="8" stroke-opacity="1" stroke-miterlimit="4"/><path stroke-linecap="round" transform="matrix(0.748651, 0, 0, 0.748651, 623.132645, 63.504064)" fill="none" stroke-linejoin="round" d="M 48.018882 -7.998972 L 64.016406 4.001779 L 48.018882 16.002531 " stroke="#20365a" stroke-width="8" stroke-opacity="1" stroke-miterlimit="4"/><path stroke-linecap="butt" transform="matrix(0.748651, 0, 0, 0.748651, 802.258509, 63.504064)" fill="none" stroke-linejoin="miter" d="M -0.000930705 4.001779 L 63.999599 4.001779 " stroke="#20365a" stroke-width="8" stroke-opacity="1" stroke-miterlimit="4"/><path stroke-linecap="round" transform="matrix(0.748651, 0, 0, 0.748651, 802.258509, 63.504064)" fill="none" stroke-linejoin="round" d="M 48.002075 -7.998972 L 63.999599 4.001779 L 48.002075 16.002531 " stroke="#20365a" stroke-width="8" stroke-opacity="1" stroke-miterlimit="4"/></svg>